<?xml version="1.0" encoding="UTF-8" standalone="no"?>
<!-- Created with Inkscape (http://www.inkscape.org/) -->
<svg id="svg2" xmlns:rdf="http://www.w3.org/1999/02/22-rdf-syntax-ns#" xmlns="http://www.w3.org/2000/svg" height="128" width="256" version="1.1" xmlns:cc="http://creativecommons.org/ns#" xmlns:xlink="http://www.w3.org/1999/xlink" xmlns:dc="http://purl.org/dc/elements/1.1/">
 <defs id="defs4">
  <linearGradient id="linearGradient3037" y2="3.6385" gradientUnits="userSpaceOnUse" x2="91.27" gradientTransform="matrix(1.0763085,0,0,0.24375976,27.616312,63.474072)" y1="93.231" x1="91.27">
   <stop id="stop1760-6-8" stop-color="#FFF" stop-opacity="0.0000000" offset="0"/>
   <stop id="stop1761-78-8" stop-color="#FFF" offset="1"/>
  </linearGradient>
  <linearGradient id="linearGradient3044" y2="3.6385" gradientUnits="userSpaceOnUse" x2="91.27" gradientTransform="matrix(1.0763103,0,0,0.24375975,27.616321,-0.53541804)" y1="93.231" x1="91.27">
   <stop id="stop1760-6" stop-color="#FFF" stop-opacity="0.0000000" offset="0"/>
   <stop id="stop1761-78" stop-color="#FFF" offset="1"/>
  </linearGradient>
  <linearGradient id="linearGradient3787" y2="-24.089" gradientUnits="userSpaceOnUse" x2="48.273" gradientTransform="matrix(0.42150586,0,0,0.31500168,15.107503,1330.0859)" y1="-43.168" x1="48.373">
   <stop id="stop2686" stop-color="#c8c8c8" offset="0"/>
   <stop id="stop2688" stop-color="#646464" offset="1"/>
  </linearGradient>
 </defs>
 <rect id="rect1061-78" stroke-linejoin="round" stroke-dasharray="none" fill-rule="nonzero" stroke-dashoffset="0" rx="30.294" ry="27.999" height="56.716" width="193.87" stroke="#000" stroke-linecap="round" stroke-miterlimit="4" y="4.0668" x="32.817" stroke-width="6.4344" fill="#ffd42a"/>
 <rect id="rect1758-16" fill-rule="nonzero" rx="25.371" ry="19.353" height="40.23" width="180.71" y="7.2897" x="38.886" fill="url(#linearGradient3044)"/>
 <rect id="rect1061-78-2" stroke-linejoin="round" stroke-dasharray="none" fill-rule="nonzero" stroke-dashoffset="0" rx="30.294" ry="27.999" height="56.716" width="193.87" stroke="#000" stroke-linecap="round" stroke-miterlimit="4" y="68.067" x="32.817" stroke-width="6.4344" fill="#9fd42a"/>
 <rect id="rect1758-16-4" fill-rule="nonzero" rx="25.371" ry="19.353" height="40.23" width="180.71" y="71.29" x="38.886" fill="url(#linearGradient3037)"/>
 <path id="path3011" stroke-linejoin="round" d="m88.047-43.168a19.087,19.087,0,1,1,-38.174,0,19.087,19.087,0,1,1,38.174,0z" transform="matrix(0.79064609,0,0,0.79064609,17.068365,66.039445)" stroke="#000" stroke-linecap="round" stroke-miterlimit="4" stroke-dasharray="none" stroke-width="3.79436517" fill="url(#linearGradient3787)"/>
 <g id="text3789" style="letter-spacing:0px;word-spacing:0px;" font-weight="bold" transform="translate(6.9413556,79.386807)" font-size="28px" stroke="#000" font-stretch="normal" line-height="125%" font-variant="normal" font-family="Segoe Print" font-style="normal" fill="#FFF">
  <path id="path3794" d="m68.535-56.712c-0.00001,0.64716-0.29168,1.2145-0.875,1.7021-0.58334,0.48765-1.0892,0.73146-1.5176,0.73144-0.54688,0.000018-1.0322-0.22785-1.4561-0.68359-0.42383-0.45571-0.63575-0.91144-0.63574-1.3672-0.000005-0.65623,0.20963-1.1872,0.62891-1.5928,0.41926-0.40558,1.0208-0.60838,1.8047-0.6084,0.61067,0.000022,1.1051,0.18004,1.4834,0.54004,0.37825,0.36005,0.56737,0.78615,0.56738,1.2783zm-6.6035,11.238,0,0.01367c0.29166-1.6588,0.4375-2.6068,0.4375-2.8438-0.000003-0.67447,0.14811-1.2396,0.44434-1.6953,0.29622-0.45572,0.70866-0.68358,1.2373-0.68359,0.61979,0.000015,1.1029,0.14585,1.4492,0.4375,0.34635,0.29168,0.51952,0.6198,0.51953,0.98438-0.000007,0.3646-0.16863,1.1165-0.50586,2.2559l-0.08203,0.30078c-0.50131,1.7591-0.80209,3.1947-0.90234,4.3066-0.10026,1.112-0.1504,2.0098-0.15039,2.6934-0.000005,0.55599,0.0957,1.2988,0.28711,2.2285,0.02734,0.16406,0.04101,0.30078,0.04102,0.41016-0.000006,0.20964-0.19825,0.49219-0.59473,0.84766-0.39649,0.35547-0.8226,0.5332-1.2783,0.5332-1.2031,0-1.8047-0.91146-1.8047-2.7344-0.000001-1.5495,0.21875-3.4362,0.65625-5.6602,0.09114-0.49218,0.17318-0.95702,0.24609-1.3945z"/>
 </g>
 <path id="path3011-2" stroke-linejoin="round" d="m88.047-43.168a19.087,19.087,0,1,1,-38.174,0,19.087,19.087,0,1,1,38.174,0z" transform="matrix(0.79064609,0,0,0.79064609,17.068365,130.03945)" stroke="#000" stroke-linecap="round" stroke-miterlimit="4" stroke-dasharray="none" stroke-width="3.79436517" fill="url(#linearGradient3787)"/>
 <g id="text3789-7" style="letter-spacing:0px;word-spacing:0px;" font-weight="bold" transform="translate(6.9413556,143.38681)" stroke="#000" font-stretch="normal" line-height="125%" font-size="28px" font-variant="normal" font-family="Segoe Print" font-style="normal" fill="#FFF">
  <path id="path3794-7" d="m68.535-56.712c-0.00001,0.64716-0.29168,1.2145-0.875,1.7021-0.58334,0.48765-1.0892,0.73146-1.5176,0.73144-0.54688,0.000018-1.0322-0.22785-1.4561-0.68359-0.42383-0.45571-0.63575-0.91144-0.63574-1.3672-0.000005-0.65623,0.20963-1.1872,0.62891-1.5928,0.41926-0.40558,1.0208-0.60838,1.8047-0.6084,0.61067,0.000022,1.1051,0.18004,1.4834,0.54004,0.37825,0.36005,0.56737,0.78615,0.56738,1.2783zm-6.6035,11.238,0,0.01367c0.29166-1.6588,0.4375-2.6068,0.4375-2.8438-0.000003-0.67447,0.14811-1.2396,0.44434-1.6953,0.29622-0.45572,0.70866-0.68358,1.2373-0.68359,0.61979,0.000015,1.1029,0.14585,1.4492,0.4375,0.34635,0.29168,0.51952,0.6198,0.51953,0.98438-0.000007,0.3646-0.16863,1.1165-0.50586,2.2559l-0.08203,0.30078c-0.50131,1.7591-0.80209,3.1947-0.90234,4.3066-0.10026,1.112-0.1504,2.0098-0.15039,2.6934-0.000005,0.55599,0.0957,1.2988,0.28711,2.2285,0.02734,0.16406,0.04101,0.30078,0.04102,0.41016-0.000006,0.20964-0.19825,0.49219-0.59473,0.84766-0.39649,0.35547-0.8226,0.5332-1.2783,0.5332-1.2031,0-1.8047-0.91146-1.8047-2.7344-0.000001-1.5495,0.21875-3.4362,0.65625-5.6602,0.09114-0.49218,0.17318-0.95702,0.24609-1.3945z"/>
 </g>
</svg>
