<?xml version="1.0" encoding="UTF-8" standalone="no"?>
<!-- Created with Inkscape (http://www.inkscape.org/) -->

<svg
   xmlns:dc="http://purl.org/dc/elements/1.1/"
   xmlns:cc="http://creativecommons.org/ns#"
   xmlns:rdf="http://www.w3.org/1999/02/22-rdf-syntax-ns#"
   xmlns:svg="http://www.w3.org/2000/svg"
   xmlns="http://www.w3.org/2000/svg"
   xmlns:sodipodi="http://sodipodi.sourceforge.net/DTD/sodipodi-0.dtd"
   xmlns:inkscape="http://www.inkscape.org/namespaces/inkscape"
   width="372.04724"
   height="524.40942"
   id="svg2"
   version="1.1"
   inkscape:version="0.48.2 r9819"
   sodipodi:docname="splash.svg"
   inkscape:export-filename="D:\Android\Reindeer-Mobile\logo\logo1a.png"
   inkscape:export-xdpi="90"
   inkscape:export-ydpi="90">
  <defs
     id="defs4">
    <inkscape:path-effect
       effect="spiro"
       id="path-effect4089"
       is_visible="true" />
    <inkscape:path-effect
       effect="spiro"
       id="path-effect4063"
       is_visible="true" />
    <inkscape:path-effect
       effect="spiro"
       id="path-effect3981"
       is_visible="true" />
    <inkscape:path-effect
       effect="spiro"
       id="path-effect3975"
       is_visible="true" />
    <inkscape:path-effect
       effect="spiro"
       id="path-effect3971"
       is_visible="true" />
  </defs>
  <sodipodi:namedview
     id="base"
     pagecolor="#ffffff"
     bordercolor="#666666"
     borderopacity="1.0"
     inkscape:pageopacity="0.0"
     inkscape:pageshadow="2"
     inkscape:zoom="0.98994949"
     inkscape:cx="332.24326"
     inkscape:cy="344.31803"
     inkscape:document-units="px"
     inkscape:current-layer="layer1"
     showgrid="false"
     inkscape:window-width="1366"
     inkscape:window-height="721"
     inkscape:window-x="-4"
     inkscape:window-y="-4"
     inkscape:window-maximized="1"
     showguides="true"
     inkscape:guide-bbox="true" />
  <g
     inkscape:label="Layer 1"
     inkscape:groupmode="layer"
     id="layer1"
     transform="translate(0,-527.95269)">
    <path
       style="fill:none;stroke:#000000;stroke-width:3;stroke-linecap:round;stroke-linejoin:round;stroke-miterlimit:4;stroke-opacity:1;stroke-dasharray:none"
       d="m 161.20292,714.03815 -19.99542,12.13827 0,0"
       id="path4000"
       inkscape:connector-curvature="0" />
    <path
       sodipodi:type="arc"
       style="fill:#000000;stroke:#241c1c;stroke-width:3;stroke-linecap:round;stroke-linejoin:round;stroke-miterlimit:4;stroke-dasharray:none"
       id="path4004"
       sodipodi:cx="290.35715"
       sodipodi:cy="406.64789"
       sodipodi:rx="3.2142856"
       sodipodi:ry="5"
       d="m 293.57143,406.64789 a 3.2142856,5 0 1 1 -6.42857,0 3.2142856,5 0 1 1 6.42857,0 z"
       transform="matrix(0.88077463,-0.31916434,0.33293562,0.91877822,-233.44701,462.23874)" />
    <path
       sodipodi:type="arc"
       style="fill:#000000;stroke:#241c1c;stroke-width:3;stroke-linecap:round;stroke-linejoin:round;stroke-miterlimit:4;stroke-dasharray:none"
       id="path4004-1"
       sodipodi:cx="290.35715"
       sodipodi:cy="406.64789"
       sodipodi:rx="3.2142856"
       sodipodi:ry="5"
       d="m 293.57143,406.64789 a 3.2142856,5 0 1 1 -6.42857,0 3.2142856,5 0 1 1 6.42857,0 z"
       transform="matrix(0.89145804,0.28797985,-0.30040558,0.9299226,74.270756,281.93603)" />
    <path
       style="fill:none;stroke:#000000;stroke-width:3.42511153;stroke-linecap:round;stroke-linejoin:round;stroke-miterlimit:4;stroke-opacity:1;stroke-dasharray:none"
       d="m 230.38221,725.46077 -19.95587,-15.70698 0,0"
       id="path4000-7"
       inkscape:connector-curvature="0" />
    <path
       style="fill:none;stroke:#000000;stroke-width:5;stroke-linecap:round;stroke-linejoin:round;stroke-miterlimit:4;stroke-opacity:1;stroke-dasharray:none"
       d="m 131.57894,769.26302 c 27.4211,-42.91576 100.38163,-14.27409 101.32397,-5.10461 11.14212,9.07431 -3.14651,42.77955 -16.33929,52.85714 -9.35737,8.47982 -50.11641,14.25214 -71.16071,2.85715 -15.49878,-14.4056 -18.34586,-36.72582 -13.82397,-50.60968 z"
       id="path4053"
       inkscape:connector-curvature="0"
       sodipodi:nodetypes="ccccc" />
    <path
       style="fill:none;stroke:#000000;stroke-width:4.18042994;stroke-linecap:round;stroke-linejoin:round;stroke-miterlimit:4;stroke-opacity:1;stroke-dasharray:none"
       d="m 179.72459,745.94412 -0.78622,39.00891"
       id="path4055"
       inkscape:connector-curvature="0" />
    <path
       style="fill:none;stroke:#000000;stroke-width:3.7988143;stroke-linecap:round;stroke-linejoin:round;stroke-miterlimit:4;stroke-opacity:1;stroke-dasharray:none"
       d="m 178.97434,803.03856 0.35714,22.54842"
       id="path4061"
       inkscape:path-effect="#path-effect4063"
       inkscape:original-d="m 178.97434,803.03856 0.35714,22.54842"
       inkscape:connector-curvature="0" />
    <path
       style="fill:none;stroke:#000000;stroke-width:4;stroke-linecap:round;stroke-linejoin:round;stroke-miterlimit:4;stroke-opacity:1;stroke-dasharray:none"
       d="m 170.31997,790.27317 c 2.64072,-2.67748 12.02286,-4.65039 17.5,-1e-5 -0.002,2.97211 0.6696,6.56658 -7.85714,10.71429 -8.31265,0.57455 -8.8001,-3.81895 -9.64286,-10.71428 z"
       id="path4065"
       inkscape:connector-curvature="0"
       sodipodi:nodetypes="cccc" />
    <path
       style="fill:none;stroke:#000000;stroke-width:4;stroke-linecap:round;stroke-linejoin:round;stroke-miterlimit:4;stroke-opacity:1;stroke-dasharray:none"
       d="m 232.09475,799.74672 c -6.97186,-1.91402 22.32674,8.57858 22.72843,-78.28682 -0.17662,-3.29419 -2.3323,-13.14536 -6.73659,-16.99873 -16.73144,-14.63859 -78.20814,-37.95647 -115.49186,-9.26524 -8.75009,4.7491 -30.26341,62.95213 -3.03046,94.95434 l 0,0"
       id="path4067"
       inkscape:connector-curvature="0"
       sodipodi:nodetypes="ccsccc" />
    <path
       style="fill:none;stroke:#000000;stroke-width:5;stroke-linecap:round;stroke-linejoin:round;stroke-miterlimit:4;stroke-opacity:1;stroke-dasharray:none"
       d="m 142.19117,689.13501 c 3.82816,-9.38741 10.82765,-7.6624 20.94961,-22.54934 8.72598,-12.8338 -9.22959,-20.65563 -8.48319,-34.98547 0.70384,-13.51289 12.24259,-17.52489 16.20889,-23.18106 5.17383,-7.37818 4.77686,-15.49774 7.69019,-23.83491 7.77001,9.81841 17.16212,13.14843 21.20324,37.88243 1.53247,9.14502 0.45227,12.6821 -14.26867,30.29393 -1.02309,13.19306 7.10824,22.85629 12.25833,29.80843 4.53709,-4.18727 -0.41733,-9.04144 3.45489,-14.33684 4.61619,-6.31282 16.13798,-5.07976 21.54415,-12.35612 4.89662,-6.59055 6.09551,-22.33053 10.00372,-32.03783 3.26203,-8.10232 9.17759,-10.16339 13.48455,-16.52557 4.25297,-2.10868 22.08598,30.53513 22.22288,41.50087 l -0.77809,11.73058 c -4.36706,13.54652 -18.5414,13.65718 -26.04943,16.93141 -0.45552,7.92711 4.95503,13.83391 -0.44612,21.76102"
       id="path4069"
       inkscape:connector-curvature="0"
       sodipodi:nodetypes="csssccccsssccccc" />
    <path
       style="fill:none;stroke:#000000;stroke-width:4;stroke-linecap:round;stroke-linejoin:round;stroke-miterlimit:4;stroke-opacity:1;stroke-dasharray:none"
       d="m 243.7115,696.20608 c 4.97314,-8.71844 11.97627,-10.69345 18.68782,-13.63706 5.5535,20.1397 1.65933,31.69061 -7.57614,38.3858"
       id="path4071"
       inkscape:connector-curvature="0"
       sodipodi:nodetypes="ccc" />
    <path
       style="fill:none;stroke:#000000;stroke-width:4;stroke-linecap:round;stroke-linejoin:round;stroke-miterlimit:4;stroke-opacity:1;stroke-dasharray:none"
       d="m 142.19117,690.14517 c -1.99913,-12.02203 -7.26634,-19.95895 -14.64721,-25.25381 -13.70018,21.84444 -5.08851,32.54546 -4.04061,44.95178"
       id="path4073"
       inkscape:connector-curvature="0"
       sodipodi:nodetypes="ccc" />
    <path
       style="fill:none;stroke:#000000;stroke-width:4;stroke-linecap:round;stroke-linejoin:round;stroke-miterlimit:4;stroke-opacity:1;stroke-dasharray:none"
       d="m 232.09475,800.2518 c 42.40727,56.63349 98.78658,16.99454 119.70308,23.23351 22.21376,8.31735 13.59764,24.26939 -15.65736,39.39595 -19.92468,5.78215 -49.74677,17.02818 -80.81221,8.58629 -0.43916,1.46519 -2.10379,-1.33332 0,11.61676 2.48137,24.30324 32.55871,53.09982 1.01015,67.68022 l 0,-0.50508"
       id="path4075"
       inkscape:connector-curvature="0"
       sodipodi:nodetypes="ccccccc" />
    <path
       style="fill:none;stroke:#000000;stroke-width:4;stroke-linecap:round;stroke-linejoin:round;stroke-miterlimit:4;stroke-opacity:1;stroke-dasharray:none"
       d="m 134.61503,810.35332 c -9.14116,2.92957 -14.67455,6.51511 -9.09137,12.12183 0.0483,14.65138 -85.952164,-4.85565 -112.612444,-7.76242 -6.5015996,-0.70887 -5.4662196,5.7779 -5.5141296,8.77257 -0.49174,12.19159 6.7140196,18.20984 24.6874596,27.7792 30.84718,9.37202 53.72323,15.32784 75.256364,20.70813"
       id="path4077"
       inkscape:connector-curvature="0"
       sodipodi:nodetypes="ccsccc" />
    <path
       sodipodi:type="arc"
       style="fill:#000000;stroke:#241c1c;stroke-width:4;stroke-linecap:round;stroke-linejoin:round;stroke-miterlimit:4;stroke-dasharray:none"
       id="path4079"
       sodipodi:cx="356.8364"
       sodipodi:cy="564.4585"
       sodipodi:rx="36.618031"
       sodipodi:ry="13.131983"
       d="m 393.45443,564.4585 a 36.618031,13.131983 0 1 1 -73.23607,0 36.618031,13.131983 0 1 1 73.23607,0 z"
       transform="translate(-213.38252,385.29587)" />
    <path
       sodipodi:type="arc"
       style="fill:#000000;stroke:#241c1c;stroke-width:4;stroke-linecap:round;stroke-linejoin:round;stroke-miterlimit:4;stroke-dasharray:none"
       id="path4081"
       sodipodi:cx="431.84021"
       sodipodi:cy="565.46863"
       sodipodi:rx="32.829956"
       sodipodi:ry="13.637059"
       d="m 464.67017,565.46863 a 32.829956,13.637059 0 1 1 -65.65992,0 32.829956,13.637059 0 1 1 65.65992,0 z"
       transform="translate(-210.35207,386.30602)" />
    <path
       style="fill:none;stroke:#000000;stroke-width:4;stroke-linecap:round;stroke-linejoin:round;stroke-miterlimit:4;stroke-opacity:1;stroke-dasharray:none"
       d="m 180.0719,951.2696 c 8.58629,1.01016 8.58629,1.01016 8.58629,1.01016"
       id="path4083"
       inkscape:connector-curvature="0" />
    <path
       style="fill:none;stroke:#000000;stroke-width:4.03676748;stroke-linecap:round;stroke-linejoin:round;stroke-miterlimit:4;stroke-opacity:1;stroke-dasharray:none"
       d="m 106.83584,947.73407 c -39.110974,-14.15466 5.20643,-36.48694 1.45395,-52.29875 l -0.29587,-0.35714"
       id="path4085"
       inkscape:connector-curvature="0"
       sodipodi:nodetypes="ccc" />
    <path
       style="fill:none;stroke:#000000;stroke-width:4;stroke-linecap:round;stroke-linejoin:round;stroke-miterlimit:4;stroke-opacity:1;stroke-dasharray:none"
       d="m 205.83079,829.04115 21.2132,3.03046 c 17.30829,2.3307 22.61272,-7.39129 20.83439,-15.1523"
       id="path4091"
       inkscape:connector-curvature="0"
       sodipodi:nodetypes="ccc" />
    <path
       style="fill:none;stroke:#000000;stroke-width:4;stroke-linecap:round;stroke-linejoin:round;stroke-miterlimit:4;stroke-opacity:1;stroke-dasharray:none"
       d="m 141.83929,816.70485 c -23.90248,28.20795 -23.85826,62.43843 -27.42731,82.03682 5.26736,7.1666 13.74109,3.35208 20.20305,4.54569 -11.1488,-38.77613 18.43101,-59.82429 29.29442,-69.70053 8.16698,14.43409 47.28186,9.0218 61.17737,-1.70463"
       id="path4093"
       inkscape:connector-curvature="0"
       sodipodi:nodetypes="ccccc" />
    <path
       style="fill:none;stroke:#000000;stroke-width:4;stroke-linecap:round;stroke-linejoin:round;stroke-miterlimit:4;stroke-opacity:1;stroke-dasharray:none"
       d="m 125.01858,821.97008 7.07107,8.08122"
       id="path4095"
       inkscape:connector-curvature="0" />
    <path
       style="fill:none;stroke:#000000;stroke-width:4;stroke-linecap:round;stroke-linejoin:round;stroke-miterlimit:4;stroke-opacity:1;stroke-dasharray:none"
       d="m 117.94751,866.41679 c -6.08902,4.06853 -6.45056,1.53247 -16.54124,10.10152 -2.201094,4.3141 1.31345,10.2939 -0.37881,16.54125 -1.053464,1.94631 8.13918,1.06881 12.62691,1.38896"
       id="path4097"
       inkscape:connector-curvature="0"
       sodipodi:nodetypes="cccc" />
    <path
       style="fill:none;stroke:#000000;stroke-width:4;stroke-linecap:round;stroke-linejoin:round;stroke-miterlimit:4;stroke-opacity:1;stroke-dasharray:none"
       d="m 132.71429,883.43361 c 4.59578,-1.87522 23.06294,-14.72832 15.71428,-34.99999"
       id="path4099"
       inkscape:connector-curvature="0"
       sodipodi:nodetypes="cc" />
    <path
       style="fill:none;stroke:#000000;stroke-width:4;stroke-linecap:round;stroke-linejoin:round;stroke-miterlimit:4;stroke-opacity:1;stroke-dasharray:none"
       d="m 147.89286,868.25504 c -0.98644,22.54114 -0.46137,46.18186 9.82143,58.39286 22.84079,10.42561 25.29973,3.50065 27.62813,2.20414 57.42464,-44.79557 26.70602,-62.95401 39.87187,-94.70414"
       id="path4101"
       inkscape:connector-curvature="0"
       sodipodi:nodetypes="cccc" />
    <path
       style="fill:none;stroke:#000000;stroke-width:3;stroke-linecap:round;stroke-linejoin:round;stroke-miterlimit:4;stroke-opacity:1;stroke-dasharray:none"
       d="m 329.85715,824.50504 c 10.43682,6.36266 4.04699,27.13318 4.28571,38.57143 l 0,0 0,0"
       id="path4103"
       inkscape:connector-curvature="0"
       sodipodi:nodetypes="cccc" />
    <path
       style="fill:none;stroke:#000000;stroke-width:4;stroke-linecap:round;stroke-linejoin:round;stroke-miterlimit:4;stroke-opacity:1;stroke-dasharray:none"
       d="m 34.862466,818.43454 c 4.19061,14.88104 3.23231,24.25822 0.75761,33.0825"
       id="path4109"
       inkscape:connector-curvature="0"
       sodipodi:nodetypes="cc" />
    <path
       style="fill:#000000;stroke:#241c1c;stroke-width:0.50507629;stroke-linecap:round;stroke-linejoin:round;stroke-miterlimit:4;stroke-dasharray:none"
       d="m 33.159086,849.39043 c -0.82342,-0.33522 -5.41652,-2.85269 -7.82868,-4.29091 -6.61543,-3.94434 -10.72932,-7.32916 -13.05937,-10.74495 -0.74055,-1.08563 -1.72528,-3.1334 -2.06942,-4.30341 -0.6294996,-2.14016 -0.7094196,-2.93189 -0.7138196,-7.07107 -0.005,-4.3365 0.0846,-4.98224 0.7803996,-5.64602 0.76118,-0.72619 1.07039,-0.7398 5.0904,-0.22403 4.09497,0.5254 16.00896,2.37216 17.50555,2.7135 0.23968,0.0547 0.33663,0.32421 0.78859,2.19245 0.87872,3.63223 1.41512,6.65034 1.79835,10.11861 0.2398,2.17026 0.20487,7.99197 -0.0606,10.10152 -0.32355,2.57097 -1.21875,7.0876 -1.45652,7.34875 -0.0442,0.0486 -0.39289,-0.0389 -0.77486,-0.19444 z"
       id="path4111"
       inkscape:connector-curvature="0" />
    <path
       style="fill:#000000;stroke:#241c1c;stroke-width:2.85714293;stroke-linecap:round;stroke-linejoin:round;stroke-miterlimit:4;stroke-dasharray:none"
       d="m 336.20713,857.89796 c 0.232,-1.08036 0.62813,-6.94643 0.88029,-13.03572 0.3801,-9.17869 0.26295,-11.62093 -0.68528,-14.28571 -0.62908,-1.76786 -1.14845,-3.42519 -1.15417,-3.68297 -0.0143,-0.64397 6.31965,-1.45989 11.33297,-1.45989 3.01834,0 5.10844,0.49252 7.7321,1.82203 10.89793,5.5224 9.59882,13.883 -3.67487,23.65015 -4.74172,3.4891 -13.56294,8.95639 -14.4507,8.95639 -0.22118,0 -0.21233,-0.88392 0.0197,-1.96428 z"
       id="path4113"
       inkscape:connector-curvature="0" />
    <g
       style="font-size:40px;font-style:normal;font-weight:normal;line-height:125%;letter-spacing:0px;word-spacing:0px;fill:#000000;fill-opacity:1;stroke:none;font-family:Sans"
       id="text3049">
      <path
         d="m 46.47645,615.43793 c -1.302098,1.10677 -2.555352,1.88802 -3.759766,2.34375 -1.204438,0.45573 -2.496754,0.68359 -3.876953,0.68359 -2.278652,0 -4.029952,-0.55664 -5.253906,-1.66992 -1.22396,-1.11328 -1.835939,-2.5358 -1.835938,-4.26758 -1e-6,-1.01562 0.231119,-1.94335 0.69336,-2.7832 0.462237,-0.83984 1.067705,-1.51366 1.816406,-2.02149 0.748693,-0.5078 1.591791,-0.89191 2.529297,-1.15234 0.690097,-0.18228 1.731763,-0.35806 3.125,-0.52734 2.838529,-0.33853 4.928371,-0.74218 6.269531,-1.21094 0.013,-0.48176 0.01952,-0.78775 0.01953,-0.91797 -1.5e-5,-1.43228 -0.332046,-2.44139 -0.996093,-3.02734 -0.898452,-0.79426 -2.233086,-1.19139 -4.003907,-1.19141 -1.653655,2e-5 -2.874357,0.28973 -3.662109,0.86914 -0.787767,0.57944 -1.370448,1.60483 -1.748047,3.07617 l -3.4375,-0.46875 c 0.312498,-1.47134 0.82682,-2.65949 1.542969,-3.56445 0.716141,-0.90493 1.751297,-1.60154 3.105469,-2.08984 1.354158,-0.48826 2.923167,-0.73241 4.707031,-0.73243 1.77082,2e-5 3.209621,0.20836 4.316406,0.625 1.106754,0.41669 1.920555,0.94078 2.441406,1.57227 0.520815,0.63153 0.885398,1.42905 1.09375,2.39258 0.117169,0.59897 0.175762,1.6797 0.175782,3.24218 l 0,4.6875 c -2e-5,3.26824 0.07485,5.33529 0.224609,6.20118 0.14972,0.86588 0.445944,1.69596 0.888672,2.49023 l -3.671875,0 c -0.3646,-0.72916 -0.598975,-1.58203 -0.703125,-2.55859 z m -0.292969,-7.85157 c -1.276056,0.52085 -3.190117,0.96356 -5.742187,1.32813 -1.445321,0.20834 -2.467456,0.44272 -3.066407,0.70312 -0.598964,0.26043 -1.061203,0.64129 -1.386718,1.14258 -0.325526,0.50131 -0.488287,1.05795 -0.488282,1.66992 -5e-6,0.93751 0.354813,1.71876 1.064454,2.34375 0.709628,0.62501 1.748038,0.93751 3.115234,0.9375 1.354156,10e-6 2.558582,-0.29622 3.613281,-0.88867 1.054674,-0.59244 1.829412,-1.40299 2.324219,-2.43164 0.377588,-0.79426 0.56639,-1.96614 0.566406,-3.51562 z"
         style=""
         id="path3054" />
      <path
         d="m 68.66395,617.99652 0,-2.61719 c -1.315119,2.0573 -3.248711,3.08594 -5.800781,3.08594 -1.653655,0 -3.173836,-0.45573 -4.560547,-1.36719 -1.386723,-0.91145 -2.460941,-2.18424 -3.222656,-3.81836 -0.761721,-1.6341 -1.14258,-3.51236 -1.142579,-5.63476 -1e-6,-2.0703 0.345051,-3.94855 1.035157,-5.63477 0.690101,-1.68618 1.725256,-2.97849 3.105468,-3.87695 1.380202,-0.89842 2.923169,-1.34764 4.628907,-1.34766 1.249988,2e-5 2.363268,0.2637 3.339843,0.79102 0.976549,0.52736 1.770819,1.21421 2.382813,2.06055 l 0,-10.27344 3.496094,0 0,28.63281 z M 57.550669,607.64496 c -5e-6,2.65626 0.55989,4.64193 1.679687,5.95703 1.119784,1.31511 2.441397,1.97266 3.964844,1.97266 1.536446,0 2.841783,-0.62826 3.916016,-1.88477 1.074203,-1.2565 1.611312,-3.17382 1.611328,-5.75195 -1.6e-5,-2.83853 -0.546891,-4.92186 -1.640625,-6.25 -1.093764,-1.32811 -2.441419,-1.99217 -4.042969,-1.99219 -1.562509,2e-5 -2.867846,0.63804 -3.916016,1.91406 -1.048182,1.27606 -1.57227,3.28778 -1.572265,6.03516 z"
         style=""
         id="path3056" />
      <path
         d="m 76.066294,611.80511 3.476562,-0.54687 c 0.195308,1.39323 0.738927,2.46094 1.63086,3.20312 0.891919,0.7422 2.138663,1.11329 3.740234,1.11329 1.614572,0 2.812487,-0.32878 3.59375,-0.98633 0.781236,-0.65755 1.17186,-1.42903 1.171875,-2.31446 -1.5e-5,-0.79426 -0.345067,-1.41926 -1.035156,-1.875 -0.481784,-0.31249 -1.6797,-0.70962 -3.59375,-1.1914 -2.578133,-0.65103 -4.365241,-1.21418 -5.361328,-1.68945 -0.996098,-0.47525 -1.751306,-1.13281 -2.265625,-1.97266 -0.514325,-0.83983 -0.771487,-1.76756 -0.771485,-2.7832 -2e-6,-0.92447 0.211587,-1.78059 0.634766,-2.56836 0.423174,-0.78775 0.999345,-1.44204 1.728515,-1.96289 0.546871,-0.40363 1.292313,-0.74543 2.236329,-1.02539 0.944003,-0.27993 1.956371,-0.41991 3.037109,-0.41993 1.627593,2e-5 3.056628,0.2344 4.287109,0.70313 1.230454,0.46877 2.138656,1.10353 2.72461,1.9043 0.58592,0.80079 0.989566,1.87176 1.210937,3.21289 l -3.4375,0.46875 c -0.156264,-1.0677 -0.608737,-1.90103 -1.357422,-2.5 -0.74871,-0.59894 -1.806651,-0.89842 -3.173828,-0.89844 -1.614591,2e-5 -2.766934,0.26694 -3.457031,0.80078 -0.69011,0.53387 -1.035161,1.15887 -1.035156,1.875 -5e-6,0.45574 0.143224,0.8659 0.429687,1.23047 0.286453,0.37762 0.735671,0.69012 1.347656,0.9375 0.351556,0.13022 1.386711,0.4297 3.105469,0.89844 2.486967,0.66407 4.221991,1.20769 5.205078,1.63086 0.983057,0.42318 1.754541,1.03842 2.314453,1.8457 0.559878,0.8073 0.839826,1.8099 0.839844,3.00781 -1.8e-5,1.17188 -0.341815,2.2754 -1.02539,3.31055 -0.683611,1.03516 -1.669938,1.83594 -2.958985,2.40234 -1.289075,0.56641 -2.747407,0.84961 -4.375,0.84961 -2.69532,0 -4.749354,-0.55989 -6.162109,-1.67969 -1.412763,-1.11979 -2.314455,-2.77994 -2.705078,-4.98047 z"
         style=""
         id="path3058" />
      <path
         d="m 96.066294,611.80511 3.476562,-0.54687 c 0.195308,1.39323 0.738924,2.46094 1.630864,3.20312 0.89192,0.7422 2.13866,1.11329 3.74023,1.11329 1.61457,0 2.81249,-0.32878 3.59375,-0.98633 0.78124,-0.65755 1.17186,-1.42903 1.17187,-2.31446 -1e-5,-0.79426 -0.34506,-1.41926 -1.03515,-1.875 -0.48179,-0.31249 -1.6797,-0.70962 -3.59375,-1.1914 -2.57813,-0.65103 -4.36524,-1.21418 -5.361329,-1.68945 -0.996098,-0.47525 -1.751306,-1.13281 -2.265625,-1.97266 -0.514325,-0.83983 -0.771487,-1.76756 -0.771485,-2.7832 -2e-6,-0.92447 0.211587,-1.78059 0.634766,-2.56836 0.423174,-0.78775 0.999345,-1.44204 1.728515,-1.96289 0.546871,-0.40363 1.292308,-0.74543 2.236328,-1.02539 0.944,-0.27993 1.95637,-0.41991 3.03711,-0.41993 1.62759,2e-5 3.05663,0.2344 4.28711,0.70313 1.23045,0.46877 2.13866,1.10353 2.72461,1.9043 0.58592,0.80079 0.98956,1.87176 1.21094,3.21289 l -3.4375,0.46875 c -0.15627,-1.0677 -0.60874,-1.90103 -1.35743,-2.5 -0.74871,-0.59894 -1.80665,-0.89842 -3.17382,-0.89844 -1.6146,2e-5 -2.76694,0.26694 -3.45704,0.80078 -0.6901,0.53387 -1.03516,1.15887 -1.03515,1.875 -1e-5,0.45574 0.14322,0.8659 0.42969,1.23047 0.28645,0.37762 0.73567,0.69012 1.34765,0.9375 0.35156,0.13022 1.38671,0.4297 3.10547,0.89844 2.48697,0.66407 4.22199,1.20769 5.20508,1.63086 0.98306,0.42318 1.75454,1.03842 2.31445,1.8457 0.55988,0.8073 0.83983,1.8099 0.83985,3.00781 -2e-5,1.17188 -0.34182,2.2754 -1.02539,3.31055 -0.68361,1.03516 -1.66994,1.83594 -2.95899,2.40234 -1.28907,0.56641 -2.74741,0.84961 -4.375,0.84961 -2.69532,0 -4.74935,-0.55989 -6.162108,-1.67969 -1.412763,-1.11979 -2.314455,-2.77994 -2.705078,-4.98047 z"
         style=""
         id="path3060" />
    </g>
  </g>
</svg>
