<?xml version="1.0" encoding="UTF-8" standalone="no"?>
<!-- Created with Inkscape (http://www.inkscape.org/) -->

<svg
   xmlns:dc="http://purl.org/dc/elements/1.1/"
   xmlns:cc="http://creativecommons.org/ns#"
   xmlns:rdf="http://www.w3.org/1999/02/22-rdf-syntax-ns#"
   xmlns:svg="http://www.w3.org/2000/svg"
   xmlns="http://www.w3.org/2000/svg"
   xmlns:sodipodi="http://sodipodi.sourceforge.net/DTD/sodipodi-0.dtd"
   xmlns:inkscape="http://www.inkscape.org/namespaces/inkscape"
   width="372.04724"
   height="524.40942"
   id="svg2"
   version="1.1"
   inkscape:version="0.48.2 r9819"
   sodipodi:docname="splash.svg"
   inkscape:export-filename="D:\Android\Reindeer-Mobile\logo\logo1a.png"
   inkscape:export-xdpi="90"
   inkscape:export-ydpi="90">
  <defs
     id="defs4">
    <inkscape:path-effect
       effect="spiro"
       id="path-effect4089"
       is_visible="true" />
    <inkscape:path-effect
       effect="spiro"
       id="path-effect4063"
       is_visible="true" />
    <inkscape:path-effect
       effect="spiro"
       id="path-effect3981"
       is_visible="true" />
    <inkscape:path-effect
       effect="spiro"
       id="path-effect3975"
       is_visible="true" />
    <inkscape:path-effect
       effect="spiro"
       id="path-effect3971"
       is_visible="true" />
  </defs>
  <sodipodi:namedview
     id="base"
     pagecolor="#ffffff"
     bordercolor="#666666"
     borderopacity="1.0"
     inkscape:pageopacity="0.0"
     inkscape:pageshadow="2"
     inkscape:zoom="0.98994949"
     inkscape:cx="332.24326"
     inkscape:cy="253.40139"
     inkscape:document-units="px"
     inkscape:current-layer="text3020"
     showgrid="false"
     inkscape:window-width="1366"
     inkscape:window-height="721"
     inkscape:window-x="-4"
     inkscape:window-y="-4"
     inkscape:window-maximized="1"
     showguides="true"
     inkscape:guide-bbox="true" />
  <g
     inkscape:label="Layer 1"
     inkscape:groupmode="layer"
     id="layer1"
     transform="translate(0,-527.95269)">
    <path
       style="fill:none;stroke:#000000;stroke-width:2.49745941;stroke-linecap:round;stroke-linejoin:round;stroke-miterlimit:4;stroke-opacity:1;stroke-dasharray:none"
       d="m 161.09764,751.93408 -16.64592,10.10493 0,0"
       id="path4000"
       inkscape:connector-curvature="0" />
    <path
       sodipodi:type="arc"
       style="fill:#000000;stroke:#241c1c;stroke-width:3;stroke-linecap:round;stroke-linejoin:round;stroke-miterlimit:4;stroke-dasharray:none"
       id="path4004"
       sodipodi:cx="290.35715"
       sodipodi:cy="406.64789"
       sodipodi:rx="3.2142856"
       sodipodi:ry="5"
       d="m 293.57143,406.64789 c 0,2.76142 -1.43908,5 -3.21428,5 -1.7752,0 -3.21429,-2.23858 -3.21429,-5 0,-2.76143 1.43909,-5 3.21429,-5 1.7752,0 3.21428,2.23857 3.21428,5 z"
       transform="matrix(0.73323297,-0.26569999,0.27716438,0.76487042,-167.44309,542.31447)" />
    <path
       sodipodi:type="arc"
       style="fill:#000000;stroke:#241c1c;stroke-width:3;stroke-linecap:round;stroke-linejoin:round;stroke-miterlimit:4;stroke-dasharray:none"
       id="path4004-1"
       sodipodi:cx="290.35715"
       sodipodi:cy="406.64789"
       sodipodi:rx="3.2142856"
       sodipodi:ry="5"
       d="m 293.57143,406.64789 c 0,2.76142 -1.43908,5 -3.21428,5 -1.7752,0 -3.21429,-2.23858 -3.21429,-5 0,-2.76143 1.43909,-5 3.21429,-5 1.7752,0 3.21428,2.23857 3.21428,5 z"
       transform="matrix(0.74212674,0.23973932,-0.25008359,0.77414797,88.727789,392.21493)" />
    <path
       style="fill:none;stroke:#000000;stroke-width:2.85135889;stroke-linecap:round;stroke-linejoin:round;stroke-miterlimit:4;stroke-opacity:1;stroke-dasharray:none"
       d="m 218.68846,761.44326 -16.61299,-13.07586 0,0"
       id="path4000-7"
       inkscape:connector-curvature="0" />
    <path
       style="fill:none;stroke:#000000;stroke-width:4.16243219;stroke-linecap:round;stroke-linejoin:round;stroke-miterlimit:4;stroke-opacity:1;stroke-dasharray:none"
       d="m 136.43607,797.90803 c 22.8277,-35.72677 83.56636,-11.88297 84.35084,-4.24952 9.27566,7.55425 -2.61943,35.6134 -13.60224,44.00286 -7.78988,7.05935 -41.72123,11.86473 -59.24033,2.37855 -12.90252,-11.99248 -15.27268,-30.57376 -11.50827,-42.13189 z"
       id="path4053"
       inkscape:connector-curvature="0"
       sodipodi:nodetypes="ccccc" />
    <path
       style="fill:none;stroke:#000000;stroke-width:3.48015118;stroke-linecap:round;stroke-linejoin:round;stroke-miterlimit:4;stroke-opacity:1;stroke-dasharray:none"
       d="m 176.51668,778.49539 -0.65452,32.47438"
       id="path4055"
       inkscape:connector-curvature="0" />
    <path
       style="fill:none;stroke:#000000;stroke-width:3.16246152;stroke-linecap:round;stroke-linejoin:round;stroke-miterlimit:4;stroke-opacity:1;stroke-dasharray:none"
       d="m 175.89211,826.02573 0.2973,18.77123"
       id="path4061"
       inkscape:path-effect="#path-effect4063"
       inkscape:original-d="m 175.89211,826.02573 0.2973,18.77123"
       inkscape:connector-curvature="0" />
    <path
       style="fill:none;stroke:#000000;stroke-width:3.3299458;stroke-linecap:round;stroke-linejoin:round;stroke-miterlimit:4;stroke-opacity:1;stroke-dasharray:none"
       d="m 168.68746,815.3987 c 2.19836,-2.22897 10.00887,-3.87137 14.56851,0 -0.002,2.47426 0.55744,5.46657 -6.54096,8.91951 -6.92017,0.47828 -7.32597,-3.17922 -8.02755,-8.91951 z"
       id="path4065"
       inkscape:connector-curvature="0"
       sodipodi:nodetypes="cccc" />
    <path
       style="fill:none;stroke:#000000;stroke-width:3.3299458;stroke-linecap:round;stroke-linejoin:round;stroke-miterlimit:4;stroke-opacity:1;stroke-dasharray:none"
       d="m 220.11413,823.28529 c -5.80398,-1.5934 18.58671,7.14155 18.92111,-65.17268 -0.14706,-2.74241 -1.94161,-10.94334 -5.60812,-14.15125 -13.9287,-12.18643 -65.10722,-31.59822 -96.14541,-7.71315 -7.28433,3.95353 -25.19388,52.40677 -2.52282,79.04817 l 0,0"
       id="path4067"
       inkscape:connector-curvature="0"
       sodipodi:nodetypes="ccsccc" />
    <path
       style="fill:none;stroke:#000000;stroke-width:4.16243219;stroke-linecap:round;stroke-linejoin:round;stroke-miterlimit:4;stroke-opacity:1;stroke-dasharray:none"
       d="m 145.27062,731.20257 c 3.18689,-7.8149 9.01387,-6.37886 17.44026,-18.77204 7.26426,-10.68396 -7.68351,-17.19552 -7.06214,-29.12492 0.58594,-11.24929 10.19179,-14.58926 13.49368,-19.29794 4.30714,-6.14222 3.97667,-12.90165 6.40198,-19.84222 6.46843,8.1737 14.28723,10.94587 17.65141,31.53659 1.27576,7.61311 0.3765,10.55768 -11.87848,25.21929 -0.8517,10.98307 5.91752,19.02756 10.2049,24.81513 3.77707,-3.48587 -0.34742,-7.52686 2.87615,-11.93521 3.84292,-5.25536 13.43465,-4.22886 17.93521,-10.2863 4.07637,-5.48658 5.07443,-18.58987 8.32797,-26.67109 2.71559,-6.74505 7.64022,-8.46089 11.2257,-13.75729 3.54054,-1.75545 18.38628,25.42008 18.50025,34.54892 l -0.64775,9.76552 c -3.63552,11.27729 -15.43547,11.36941 -21.6858,14.09516 -0.37923,6.59923 4.12499,11.51655 -0.37138,18.11577"
       id="path4069"
       inkscape:connector-curvature="0"
       sodipodi:nodetypes="csssccccsssccccc" />
    <path
       style="fill:none;stroke:#000000;stroke-width:3.3299458;stroke-linecap:round;stroke-linejoin:round;stroke-miterlimit:4;stroke-opacity:1;stroke-dasharray:none"
       d="m 229.78492,737.08914 c 4.14007,-7.25799 9.97008,-8.90216 15.55735,-11.35268 4.62322,16.76602 1.38137,26.38202 -6.30703,31.95564"
       id="path4071"
       inkscape:connector-curvature="0"
       sodipodi:nodetypes="ccc" />
    <path
       style="fill:none;stroke:#000000;stroke-width:3.3299458;stroke-linecap:round;stroke-linejoin:round;stroke-miterlimit:4;stroke-opacity:1;stroke-dasharray:none"
       d="m 145.27062,732.0435 c -1.66425,-10.00816 -6.04914,-16.61554 -12.19361,-21.02346 -11.40521,18.1852 -4.23612,27.09367 -3.36375,37.42175"
       id="path4073"
       inkscape:connector-curvature="0"
       sodipodi:nodetypes="ccc" />
    <path
       style="fill:none;stroke:#000000;stroke-width:3.3299458;stroke-linecap:round;stroke-linejoin:round;stroke-miterlimit:4;stroke-opacity:1;stroke-dasharray:none"
       d="m 220.11413,823.7058 c 35.30347,47.14661 82.23849,14.1477 99.65119,19.34155 18.49266,6.92411 11.31985,20.20396 -13.03454,32.79662 -16.58702,4.81354 -41.41351,14.17571 -67.27507,7.14797 -0.36557,1.21975 -1.75138,-1.11 0,9.67078 2.06571,20.23211 27.10468,44.20488 0.84094,56.34288 l 0,-0.42047"
       id="path4075"
       inkscape:connector-curvature="0"
       sodipodi:nodetypes="ccccccc" />
    <path
       style="fill:none;stroke:#000000;stroke-width:3.3299458;stroke-linecap:round;stroke-linejoin:round;stroke-miterlimit:4;stroke-opacity:1;stroke-dasharray:none"
       d="m 138.96358,832.11517 c -7.60989,2.43883 -12.21637,5.42372 -7.56844,10.09125 0.0402,12.19708 -71.554015,-4.04227 -93.748338,-6.4621 -5.412494,-0.59014 -4.550554,4.81 -4.590439,7.30303 -0.409366,10.14933 5.589331,15.15947 20.551977,23.1258 25.67986,7.80208 44.723863,12.76022 62.6499,17.23926"
       id="path4077"
       inkscape:connector-curvature="0"
       sodipodi:nodetypes="ccsccc" />
    <path
       sodipodi:type="arc"
       style="fill:#000000;stroke:#241c1c;stroke-width:4;stroke-linecap:round;stroke-linejoin:round;stroke-miterlimit:4;stroke-dasharray:none"
       id="path4079"
       sodipodi:cx="356.8364"
       sodipodi:cy="564.4585"
       sodipodi:rx="36.618031"
       sodipodi:ry="13.131983"
       d="m 393.45443,564.4585 c 0,7.25259 -16.39445,13.13198 -36.61803,13.13198 -20.22358,0 -36.61804,-5.87939 -36.61804,-13.13198 0,-7.2526 16.39446,-13.13199 36.61804,-13.13199 20.22358,0 36.61803,5.87939 36.61803,13.13199 z"
       transform="matrix(0.83248648,0,0,0.83248648,-150.73967,478.2606)" />
    <path
       sodipodi:type="arc"
       style="fill:#000000;stroke:#241c1c;stroke-width:4;stroke-linecap:round;stroke-linejoin:round;stroke-miterlimit:4;stroke-dasharray:none"
       id="path4081"
       sodipodi:cx="431.84021"
       sodipodi:cy="565.46863"
       sodipodi:rx="32.829956"
       sodipodi:ry="13.637059"
       d="m 464.67017,565.46863 c 0,7.53154 -14.69848,13.63706 -32.82996,13.63706 -18.13148,0 -32.82996,-6.10552 -32.82996,-13.63706 0,-7.53154 14.69848,-13.63706 32.82996,-13.63706 18.13148,0 32.82996,6.10552 32.82996,13.63706 z"
       transform="matrix(0.83248648,0,0,0.83248648,-148.21686,479.10153)" />
    <path
       style="fill:none;stroke:#000000;stroke-width:3.3299458;stroke-linecap:round;stroke-linejoin:round;stroke-miterlimit:4;stroke-opacity:1;stroke-dasharray:none"
       d="m 176.80581,949.42607 c 7.14797,0.84093 7.14797,0.84093 7.14797,0.84093"
       id="path4083"
       inkscape:connector-curvature="0" />
    <path
       style="fill:none;stroke:#000000;stroke-width:3.36055422;stroke-linecap:round;stroke-linejoin:round;stroke-miterlimit:4;stroke-opacity:1;stroke-dasharray:none"
       d="m 115.83778,946.48276 c -32.559355,-11.78354 4.33428,-30.37486 1.2104,-43.538 l -0.2463,-0.29734"
       id="path4085"
       inkscape:connector-curvature="0"
       sodipodi:nodetypes="ccc" />
    <path
       style="fill:none;stroke:#000000;stroke-width:3.3299458;stroke-linecap:round;stroke-linejoin:round;stroke-miterlimit:4;stroke-opacity:1;stroke-dasharray:none"
       d="m 198.24974,847.67253 17.6597,2.5228 c 14.40892,1.94028 18.82478,-6.15314 17.34434,-12.61409"
       id="path4091"
       inkscape:connector-curvature="0"
       sodipodi:nodetypes="ccc" />
    <path
       style="fill:none;stroke:#000000;stroke-width:3.3299458;stroke-linecap:round;stroke-linejoin:round;stroke-miterlimit:4;stroke-opacity:1;stroke-dasharray:none"
       d="m 144.97768,837.40272 c -19.89849,23.48272 -19.86168,51.97916 -22.83286,68.29455 4.385,5.96609 11.43927,2.79056 16.81876,3.78421 -9.28123,-32.2806 15.34357,-49.80289 24.38721,-58.02475 6.7989,12.01621 39.36151,7.51055 50.92933,-1.41907"
       id="path4093"
       inkscape:connector-curvature="0"
       sodipodi:nodetypes="ccccc" />
    <path
       style="fill:none;stroke:#000000;stroke-width:3.3299458;stroke-linecap:round;stroke-linejoin:round;stroke-miterlimit:4;stroke-opacity:1;stroke-dasharray:none"
       d="m 130.97467,841.78595 5.88656,6.72751"
       id="path4095"
       inkscape:connector-curvature="0" />
    <path
       style="fill:none;stroke:#000000;stroke-width:3.3299458;stroke-linecap:round;stroke-linejoin:round;stroke-miterlimit:4;stroke-opacity:1;stroke-dasharray:none"
       d="m 125.08809,878.78723 c -5.06902,3.38701 -5.37,1.27575 -13.77035,8.40938 -1.83239,3.59145 1.09342,8.56955 -0.31535,13.77036 -0.87699,1.62029 6.77576,0.88979 10.51174,1.15632"
       id="path4097"
       inkscape:connector-curvature="0"
       sodipodi:nodetypes="cccc" />
    <path
       style="fill:none;stroke:#000000;stroke-width:3.3299458;stroke-linecap:round;stroke-linejoin:round;stroke-miterlimit:4;stroke-opacity:1;stroke-dasharray:none"
       d="m 137.38124,892.95352 c 3.82593,-1.56109 19.19959,-12.26112 13.08193,-29.13704"
       id="path4099"
       inkscape:connector-curvature="0"
       sodipodi:nodetypes="cc" />
    <path
       style="fill:none;stroke:#000000;stroke-width:3.3299458;stroke-linecap:round;stroke-linejoin:round;stroke-miterlimit:4;stroke-opacity:1;stroke-dasharray:none"
       d="m 150.0172,880.31755 c -0.82121,18.76519 -0.38408,38.44578 8.1762,48.61126 19.01465,8.67918 21.06169,2.91427 23.00004,1.83493 47.80524,-37.2917 22.23241,-52.40836 33.1928,-78.83992"
       id="path4101"
       inkscape:connector-curvature="0"
       sodipodi:nodetypes="cccc" />
    <path
       style="fill:none;stroke:#000000;stroke-width:2.49745941;stroke-linecap:round;stroke-linejoin:round;stroke-miterlimit:4;stroke-opacity:1;stroke-dasharray:none"
       d="m 301.5,843.89629 c 8.68852,5.29682 3.36907,22.58801 3.5678,32.11019 l 0,0 0,0"
       id="path4103"
       inkscape:connector-curvature="0"
       sodipodi:nodetypes="cccc" />
    <path
       style="fill:none;stroke:#000000;stroke-width:3.3299458;stroke-linecap:round;stroke-linejoin:round;stroke-miterlimit:4;stroke-opacity:1;stroke-dasharray:none"
       d="m 55.92092,838.84268 c 3.488626,12.38826 2.690854,20.19461 0.6307,27.54072"
       id="path4109"
       inkscape:connector-curvature="0"
       sodipodi:nodetypes="cc" />
    <path
       style="fill:#000000;stroke:#241c1c;stroke-width:0.42046919;stroke-linecap:round;stroke-linejoin:round;stroke-miterlimit:4;stroke-dasharray:none"
       d="m 54.50288,864.61303 c -0.685487,-0.27926 -4.509178,-2.37483 -6.517271,-3.57215 -5.507256,-3.28361 -8.932014,-6.1014 -10.871749,-8.94501 -0.616497,-0.90378 -1.436272,-2.6085 -1.722764,-3.58252 -0.52405,-1.78165 -0.590582,-2.44076 -0.594245,-5.88658 -0.0042,-3.61007 0.07043,-4.14763 0.649672,-4.70022 0.633672,-0.60456 0.891086,-0.61587 4.237689,-0.18656 3.409008,0.43739 13.327243,1.97478 14.573134,2.25897 0.199521,0.0454 0.280222,0.27002 0.656492,1.82519 0.731522,3.02377 1.178065,5.53631 1.497099,8.42361 0.199636,1.80669 0.170556,6.65319 -0.05047,8.40937 -0.269336,2.1403 -1.014591,5.90031 -1.212534,6.11772 -0.03693,0.0404 -0.327073,-0.0308 -0.64506,-0.16194 z"
       id="path4111"
       inkscape:connector-curvature="0" />
    <path
       style="fill:#000000;stroke:#241c1c;stroke-width:2.37853289;stroke-linecap:round;stroke-linejoin:round;stroke-miterlimit:4;stroke-dasharray:none"
       d="m 306.78628,871.69542 c 0.19313,-0.89937 0.5229,-5.7828 0.73283,-10.85206 0.31641,-7.64114 0.2189,-9.67428 -0.57049,-11.89266 -0.5237,-1.47173 -0.95607,-2.85141 -0.96083,-3.06601 -0.0119,-0.5361 5.26102,-1.21536 9.43454,-1.21536 2.51273,0 4.25271,0.41004 6.43687,1.51685 9.07238,4.59729 7.99089,11.5574 -3.05928,19.6884 -3.94742,2.90465 -11.29096,7.45609 -12.03001,7.45609 -0.18414,0 -0.17675,-0.73585 0.0165,-1.63525 z"
       id="path4113"
       inkscape:connector-curvature="0" />
    <g
       style="font-size:40px;font-style:normal;font-variant:normal;font-weight:normal;font-stretch:normal;line-height:125%;letter-spacing:0px;word-spacing:0px;fill:#000000;fill-opacity:1;stroke:none;font-family:Segoe Print;-inkscape-font-specification:Segoe Print"
       id="text3020">
      <path
         d="m 38.898327,584.33795 c 3.828112,-0.62497 6.621078,-0.93747 8.378906,-0.9375 2.747376,3e-5 4.941384,0.65107 6.582031,1.95313 1.6406,1.30211 2.460912,2.93622 2.460938,4.90234 -2.6e-5,1.96617 -0.869166,3.81838 -2.607422,5.55664 -1.738303,1.7383 -3.922546,3.10223 -6.552734,4.0918 -0.325538,0.13022 -0.488298,0.26694 -0.488282,0.41015 -1.6e-5,0.22137 1.344384,1.37046 4.033203,3.44727 2.688779,2.07683 5.15948,3.81185 7.41211,5.20508 0.637992,0.39063 0.957002,0.90495 0.957031,1.54297 -2.9e-5,0.41666 -0.218127,0.83008 -0.654297,1.24023 -0.436225,0.41016 -0.843126,0.61523 -1.220703,0.61524 -0.768255,-1e-5 -1.995467,-0.63803 -3.681641,-1.91407 -1.686219,-1.27604 -3.434264,-2.68228 -5.24414,-4.21875 -3.919285,-3.29426 -6.106783,-4.95441 -6.5625,-4.98047 -0.885427,-0.026 -1.510427,-0.14972 -1.875,-0.37109 -0.364593,-0.22134 -0.546884,-0.61848 -0.546875,-1.19141 -9e-6,-0.49477 0.234366,-0.92772 0.703125,-1.29882 0.46874,-0.37108 1.022125,-0.55663 1.660156,-0.55664 0.221343,10e-6 0.572905,0.0326 1.054688,0.0976 0.481758,0.0781 0.83983,0.1172 1.074218,0.11719 1.041653,10e-6 2.82225,-0.77473 5.341797,-2.32422 2.51951,-1.54946 3.779275,-3.37238 3.779297,-5.46875 -2.2e-5,-1.10675 -0.563173,-2.05727 -1.689453,-2.85156 -1.126322,-0.79425 -2.561867,-1.19138 -4.306641,-1.19141 -1.302098,3e-5 -2.60418,0.0912 -3.90625,0.27344 -1.302094,0.18232 -2.132172,0.33857 -2.490234,0.46875 -0.358083,0.13023 -0.647796,0.46552 -0.869141,1.00586 -0.221363,0.54039 -0.592456,2.26239 -1.113281,5.16601 -0.520841,2.90367 -0.927742,5.64455 -1.220703,8.22266 -0.292975,2.57813 -0.43946,4.47266 -0.439453,5.68359 -7e-6,0.93751 0.0651,1.75131 0.195312,2.44141 0.117181,0.69011 0.175775,1.24349 0.175782,1.66016 -7e-6,0.39062 -0.205085,0.79427 -0.615235,1.21093 -0.410162,0.41667 -0.856125,0.625 -1.33789,0.625 -1.367191,0 -2.050785,-1.10677 -2.050782,-3.32031 -3e-6,-5.22134 0.917965,-12.16795 2.753907,-20.83984 0.09114,-0.45571 0.136713,-0.72263 0.136718,-0.80078 -5e-6,-0.0781 -0.04558,-0.19529 -0.136718,-0.35157 -0.520839,-0.82028 -0.781255,-1.36716 -0.78125,-1.64062 -5e-6,-0.49477 0.24088,-0.92445 0.722656,-1.28906 0.481765,-0.36456 0.917962,-0.54685 1.308594,-0.54688 z"
         style="font-family:Segoe Print;-inkscape-font-specification:Segoe Print"
         id="path3025" />
      <path
         d="m 78.761608,605.31451 c -1.9e-5,1.32813 -1.175148,2.9297 -3.525391,4.80469 -2.350273,1.875 -4.775401,2.8125 -7.27539,2.8125 -2.096361,0 -3.714198,-0.61849 -4.853516,-1.85547 -1.139325,-1.23697 -1.708986,-2.96223 -1.708984,-5.17578 -2e-6,-3.72395 1.256507,-7.26561 3.769531,-10.625 2.513013,-3.35935 5.260406,-5.03904 8.242188,-5.03906 0.976547,2e-5 1.774072,0.31903 2.392578,0.95703 0.618472,0.63804 0.927717,1.40627 0.927734,2.30469 -1.7e-5,2.00522 -0.983089,3.92579 -2.949219,5.76172 -1.966158,1.83594 -4.596364,3.63933 -7.890625,5.41015 -0.677089,0.35157 -1.01563,0.8073 -1.015625,1.36719 -5e-6,1.08073 0.312495,1.94662 0.9375,2.59766 0.624993,0.65104 1.549472,0.97656 2.773438,0.97656 2.799467,0 5.657537,-1.54948 8.574219,-4.64844 0.429669,-0.42968 0.755189,-0.64452 0.976562,-0.64453 0.416648,1e-5 0.624981,0.33204 0.625,0.99609 z m -13.574219,-3.04687 c 5.520822,-3.28124 8.281236,-5.91795 8.28125,-7.91016 -1.4e-5,-0.78123 -0.351576,-1.17185 -1.054687,-1.17187 -1.197929,2e-5 -2.548839,0.87892 -4.052735,2.63672 -1.503913,1.75782 -2.561855,3.90626 -3.173828,6.44531 z"
         style="font-family:Segoe Print;-inkscape-font-specification:Segoe Print"
         id="path3027" />
      <path
         d="m 89.113171,585.78326 c -0.273446,3e-5 -0.48178,-0.29294 -0.625,-0.8789 -0.05209,-0.18227 -0.123706,-0.38409 -0.214844,-0.60547 -0.35157,-0.84633 -0.527351,-1.582 -0.527344,-2.20703 -7e-6,-0.52081 0.309237,-1.0514 0.927734,-1.5918 0.618481,-0.54033 1.305329,-0.81051 2.060547,-0.81055 0.377594,4e-5 0.80077,0.14652 1.269532,0.43946 0.468737,0.293 0.703112,0.5762 0.703125,0.84961 -1.3e-5,0.42971 -0.159518,1.15888 -0.478516,2.1875 -0.319022,1.02867 -0.826834,1.72203 -1.523438,2.08007 -0.696624,0.3581 -1.227222,0.53714 -1.591796,0.53711 z m -2.558594,21.81641 c -6e-6,0.98959 0.136712,2.10287 0.410156,3.33984 0.05208,0.23438 0.07812,0.42969 0.07813,0.58594 -7e-6,0.23438 -0.21485,0.53711 -0.644531,0.9082 -0.429693,0.3711 -0.885422,0.55664 -1.367188,0.55665 -1.263024,-1e-5 -1.894534,-1.15886 -1.894531,-3.47657 -3e-6,-2.39583 0.494788,-6.18488 1.484375,-11.36718 0.338537,-1.80988 0.507808,-2.92316 0.507813,-3.33985 -5e-6,-0.82029 0.149734,-1.52016 0.449218,-2.09961 0.299474,-0.5794 0.722651,-0.86912 1.269532,-0.86914 0.664055,2e-5 1.188143,0.15953 1.572265,0.47852 0.384106,0.31903 0.576163,0.67384 0.576172,1.06445 -9e-6,0.39064 -0.09115,0.90497 -0.273437,1.54297 -0.97657,3.43751 -1.582039,5.89845 -1.816407,7.38281 -0.234381,1.48438 -0.351568,3.24871 -0.351562,5.29297 z"
         style="font-family:Segoe Print;-inkscape-font-specification:Segoe Print"
         id="path3029" />
      <path
         d="m 107.68739,596.91608 c -0.6771,1e-5 -1.41603,0.44272 -2.2168,1.32812 -0.80079,0.88543 -2.02149,2.87111 -3.66211,5.95703 -2.161463,4.14063 -3.557946,6.4974 -4.18945,7.07032 -0.631516,0.57291 -1.155604,0.85937 -1.572266,0.85937 -1.536461,0 -2.304689,-0.74219 -2.304687,-2.22656 -2e-6,-0.625 0.104164,-1.51042 0.3125,-2.65625 0.716143,-3.93229 1.074215,-8.07942 1.074219,-12.44141 -4e-6,-0.49477 0.211585,-1.0449 0.634765,-1.65039 0.423173,-0.60545 0.823563,-0.90818 1.201172,-0.9082 0.677078,2e-5 1.158848,0.20835 1.445313,0.625 0.286451,0.41668 0.42968,1.25653 0.429687,2.51953 -7e-6,1.31512 -0.390632,4.02345 -1.171875,8.125 -0.260422,1.35417 -0.39063,2.21355 -0.390625,2.57812 -5e-6,0.20834 0.05208,0.31251 0.15625,0.3125 0.195307,10e-6 1.100254,-1.55598 2.714847,-4.66796 1.62759,-3.16405 3.05337,-5.39061 4.27734,-6.67969 1.22395,-1.28905 2.5716,-1.93358 4.04297,-1.9336 1.17186,2e-5 2.12563,0.53388 2.86133,1.60157 0.73565,1.06772 1.27276,3.01433 1.61133,5.83984 0.36456,3.21615 0.69333,5.21811 0.98632,6.00586 0.29295,0.78776 0.75844,1.18164 1.39649,1.18164 0.40362,0 0.91143,-0.14322 1.52344,-0.42969 0.10414,-0.0521 0.18226,-0.0781 0.23437,-0.0781 0.55987,0 0.83982,0.32552 0.83984,0.97656 -2e-5,0.57292 -0.38414,1.18164 -1.15234,1.82617 -0.76825,0.64453 -1.69273,0.9668 -2.77344,0.9668 -1.10679,0 -1.96291,-0.43945 -2.56836,-1.31836 -0.60548,-0.8789 -1.084,-3.22591 -1.43554,-7.04102 -0.3646,-3.82811 -1.13283,-5.74217 -2.30469,-5.74218 z"
         style="font-family:Segoe Print;-inkscape-font-specification:Segoe Print"
         id="path3031" />
      <path
         d="m 134.95301,603.84967 c -1.7448,2.79948 -3.59376,4.95769 -5.54687,6.47461 -1.95313,1.51693 -3.75001,2.27539 -5.39063,2.27539 -1.26302,0 -2.26237,-0.48503 -2.99804,-1.45508 -0.73568,-0.97005 -1.10352,-2.26236 -1.10352,-3.87695 0,-3.29426 1.33789,-6.67317 4.01367,-10.13672 2.67578,-3.46352 5.56314,-5.19529 8.66211,-5.19531 1.35415,2e-5 2.61066,0.57944 3.76953,1.73828 l 2.73438,-12.77344 c 0.19529,-0.87236 0.55662,-1.4583 1.08398,-1.75781 0.52733,-0.29945 0.94074,-0.44919 1.24024,-0.44922 0.91143,3e-5 1.36716,0.80732 1.36719,2.42188 -3e-5,0.28648 -0.29951,1.35419 -0.89844,3.20312 -0.95055,2.86461 -1.85224,6.38349 -2.70508,10.55664 -0.85288,4.17319 -1.27932,7.5228 -1.2793,10.04883 -2e-5,2.60417 0.56639,3.90625 1.69922,3.90625 0.72915,0 1.48435,-0.24088 2.26563,-0.72266 0.32549,-0.23437 0.63148,-0.35156 0.91797,-0.35156 0.41664,0 0.62497,0.27344 0.625,0.82031 -3e-5,0.66407 -0.58271,1.4323 -1.74805,2.30469 -1.16539,0.8724 -2.36005,1.30859 -3.58399,1.30859 -2.14845,0 -3.22267,-2.07031 -3.22265,-6.21093 -2e-5,-0.70312 0.0325,-1.41276 0.0977,-2.12891 z m -2.55859,-9.14062 c -2.10939,10e-6 -4.19923,1.42905 -6.26953,4.2871 -2.07032,2.85809 -3.10547,5.49806 -3.10547,7.91993 0,1.6276 0.54036,2.44141 1.62109,2.4414 1.01562,10e-6 2.24934,-0.53385 3.70118,-1.60156 1.45181,-1.0677 2.94595,-2.77017 4.48242,-5.10742 1.53644,-2.33723 2.30467,-4.09178 2.30469,-5.26367 -2e-5,-0.5729 -0.26369,-1.1621 -0.79102,-1.76758 -0.52736,-0.60545 -1.17515,-0.90819 -1.94336,-0.9082 z"
         style="font-family:Segoe Print;-inkscape-font-specification:Segoe Print"
         id="path3033" />
      <path
         d="m 164.15223,605.31451 c -2e-5,1.32813 -1.17515,2.9297 -3.52539,4.80469 -2.35027,1.875 -4.7754,2.8125 -7.27539,2.8125 -2.09636,0 -3.7142,-0.61849 -4.85351,-1.85547 -1.13933,-1.23697 -1.70899,-2.96223 -1.70899,-5.17578 0,-3.72395 1.25651,-7.26561 3.76953,-10.625 2.51302,-3.35935 5.26041,-5.03904 8.24219,-5.03906 0.97655,2e-5 1.77407,0.31903 2.39258,0.95703 0.61847,0.63804 0.92772,1.40627 0.92773,2.30469 -1e-5,2.00522 -0.98309,3.92579 -2.94922,5.76172 -1.96615,1.83594 -4.59636,3.63933 -7.89062,5.41015 -0.67709,0.35157 -1.01563,0.8073 -1.01563,1.36719 0,1.08073 0.3125,1.94662 0.9375,2.59766 0.625,0.65104 1.54948,0.97656 2.77344,0.97656 2.79947,0 5.65754,-1.54948 8.57422,-4.64844 0.42967,-0.42968 0.75519,-0.64452 0.97656,-0.64453 0.41665,1e-5 0.62498,0.33204 0.625,0.99609 z m -13.57422,-3.04687 c 5.52083,-3.28124 8.28124,-5.91795 8.28125,-7.91016 -1e-5,-0.78123 -0.35157,-1.17185 -1.05468,-1.17187 -1.19793,2e-5 -2.54884,0.87892 -4.05274,2.63672 -1.50391,1.75782 -2.56185,3.90626 -3.17383,6.44531 z"
         style="font-family:Segoe Print;-inkscape-font-specification:Segoe Print"
         id="path3035" />
      <path
         d="m 184.93348,605.31451 c -2e-5,1.32813 -1.17515,2.9297 -3.52539,4.80469 -2.35027,1.875 -4.7754,2.8125 -7.27539,2.8125 -2.09636,0 -3.7142,-0.61849 -4.85351,-1.85547 -1.13933,-1.23697 -1.70899,-2.96223 -1.70899,-5.17578 0,-3.72395 1.25651,-7.26561 3.76953,-10.625 2.51302,-3.35935 5.26041,-5.03904 8.24219,-5.03906 0.97655,2e-5 1.77407,0.31903 2.39258,0.95703 0.61847,0.63804 0.92772,1.40627 0.92773,2.30469 -1e-5,2.00522 -0.98309,3.92579 -2.94922,5.76172 -1.96615,1.83594 -4.59636,3.63933 -7.89062,5.41015 -0.67709,0.35157 -1.01563,0.8073 -1.01563,1.36719 0,1.08073 0.3125,1.94662 0.9375,2.59766 0.625,0.65104 1.54948,0.97656 2.77344,0.97656 2.79947,0 5.65754,-1.54948 8.57422,-4.64844 0.42967,-0.42968 0.75519,-0.64452 0.97656,-0.64453 0.41665,1e-5 0.62498,0.33204 0.625,0.99609 z m -13.57422,-3.04687 c 5.52083,-3.28124 8.28124,-5.91795 8.28125,-7.91016 -1e-5,-0.78123 -0.35157,-1.17185 -1.05468,-1.17187 -1.19793,2e-5 -2.54884,0.87892 -4.05274,2.63672 -1.50391,1.75782 -2.56185,3.90626 -3.17383,6.44531 z"
         style="font-family:Segoe Print;-inkscape-font-specification:Segoe Print"
         id="path3037" />
      <path
         d="m 192.9413,604.1817 c 0.1302,-0.23437 0.28645,-0.55989 0.46875,-0.97656 0.8854,-2.03124 1.69921,-3.62304 2.4414,-4.77539 0.74218,-1.15233 1.55924,-2.25585 2.45117,-3.31055 0.89192,-1.05467 1.70572,-1.85545 2.44141,-2.40234 0.73566,-0.54686 1.40298,-0.92772 2.00195,-1.14258 0.59894,-0.21482 1.17837,-0.32225 1.73828,-0.32227 1.1328,2e-5 2.05728,0.34182 2.77344,1.02539 0.71613,0.68362 1.0742,1.48114 1.07422,2.39258 -2e-5,0.40367 -0.12697,0.76825 -0.38086,1.09375 -0.25393,0.32554 -0.6413,0.4883 -1.16211,0.48828 -0.54689,2e-5 -1.04819,-0.24087 -1.5039,-0.72265 -0.46877,-0.48176 -0.95705,-0.72264 -1.46485,-0.72266 -1.35418,2e-5 -3.22918,1.64064 -5.625,4.92188 -2.39584,3.28126 -3.85417,6.89453 -4.375,10.83984 -0.13021,1.01563 -0.37761,1.6862 -0.74219,2.01172 -0.36459,0.32552 -0.87891,0.48828 -1.54296,0.48828 -0.63803,0 -1.10027,-0.47526 -1.38672,-1.42578 -0.28646,-0.95052 -0.42969,-2.55208 -0.42969,-4.80469 0,-0.61197 0.0326,-1.95963 0.0977,-4.04297 0.0781,-2.46092 0.23437,-4.4466 0.46875,-5.95703 0.039,-0.24738 0.10416,-0.82681 0.19531,-1.73828 0.0911,-1.00259 0.20507,-1.6992 0.34179,-2.08984 0.13672,-0.39061 0.41667,-0.75519 0.83985,-1.09375 0.42317,-0.33852 0.88215,-0.5078 1.37695,-0.50782 0.48177,2e-5 0.84309,0.15302 1.08399,0.45899 0.24087,0.30601 0.36132,0.63478 0.36132,0.98633 0,0.50783 -0.13021,1.22397 -0.39062,2.14843 -0.29949,1.02867 -0.47527,1.7383 -0.52734,2.12891 -0.0391,0.44272 -0.11069,0.90496 -0.21485,1.38672 -0.13021,0.55991 -0.26042,2.03126 -0.39062,4.41406 l -0.0195,0.72266 z"
         style="font-family:Segoe Print;-inkscape-font-specification:Segoe Print"
         id="path3039" />
      <path
         d="m 253.95692,588.90826 c -1.28909,1.43232 -3.28128,3.99091 -5.97656,7.67579 -2.69534,3.67188 -4.58987,6.03516 -5.6836,7.08984 -1.09376,1.05469 -1.9922,1.58204 -2.69531,1.58203 -0.53387,1e-5 -1.0547,-0.40038 -1.5625,-1.20117 -0.50783,-0.80077 -1.16538,-2.41861 -1.97265,-4.85352 -1.66668,-4.96092 -2.71486,-7.81899 -3.14454,-8.57422 -0.15626,0.44273 -0.33204,1.16539 -0.52734,2.16797 -0.41668,2.10939 -0.97006,4.68101 -1.66016,7.71485 -1.34115,5.82031 -2.10287,9.67448 -2.28515,11.5625 -0.026,0.23437 -0.23764,0.48828 -0.63477,0.76172 -0.39714,0.27343 -0.7194,0.41015 -0.96679,0.41015 -0.46876,0 -0.9017,-0.23437 -1.29883,-0.70312 -0.39714,-0.46875 -0.59571,-0.92448 -0.59571,-1.36719 0,-1.14583 0.37761,-3.14453 1.13282,-5.99609 l 1.69922,-6.40625 c 1.04166,-4.03645 1.68619,-7.00519 1.93359,-8.90625 0.24739,-1.90102 0.37109,-3.39842 0.37109,-4.49219 0,-1.13279 0.89192,-1.69919 2.67578,-1.69922 0.3776,3e-5 0.77473,0.3288 1.19141,0.98633 0.41666,0.65758 0.69009,1.23375 0.82031,1.72851 0.16926,0.49482 0.37108,1.0482 0.60547,1.66016 l 2.61719,7.32422 c 1.02863,2.9948 1.66339,4.68425 1.9043,5.06836 0.24086,0.38412 0.43943,0.57618 0.5957,0.57617 0.66404,-0.14322 3.0143,-3.00129 7.05078,-8.57422 4.49216,-6.18487 7.05726,-9.27731 7.69531,-9.27734 0.5208,3e-5 1.09697,0.2051 1.72852,0.61523 0.63147,0.41019 0.94723,0.765 0.94726,1.06445 -3e-5,0.13024 -0.37763,2.98831 -1.13281,8.57422 -0.27347,2.07033 -0.52738,4.55405 -0.76172,7.45117 -0.2344,2.89715 -0.35159,4.52801 -0.35156,4.89258 -3e-5,0.66407 0.11716,1.40626 0.35156,2.22657 0.2083,0.72917 0.31247,1.3151 0.3125,1.75781 -3e-5,0.35156 -0.0651,0.86263 -0.19531,1.5332 -0.13024,0.67057 -0.41344,1.06445 -0.84961,1.18164 -0.43623,0.11719 -0.78454,0.17578 -1.04492,0.17578 -1.36722,0 -2.05081,-1.13932 -2.05078,-3.41797 -3e-5,-2.08332 0.44919,-7.18098 1.34765,-15.29296 0.0651,-0.65103 0.0976,-1.05467 0.0977,-1.21094 -3e-5,-0.10415 0.0781,-0.54035 0.23438,-1.3086 0.11715,-0.65102 0.17575,-1.19789 0.17578,-1.64062 -3e-5,-0.42967 -0.0326,-0.71612 -0.0977,-0.85938 z"
         style="font-family:Segoe Print;-inkscape-font-specification:Segoe Print"
         id="path3041" />
      <path
         d="m 268.99598,612.91217 c -1.78386,0 -3.25521,-0.67708 -4.41406,-2.03125 -1.15886,-1.35416 -1.73828,-3.02734 -1.73828,-5.01953 0,-3.35937 1.12955,-6.66991 3.38867,-9.93164 2.25911,-3.2617 4.96418,-4.89256 8.11524,-4.89258 2.08331,2e-5 3.77276,0.8008 5.06835,2.40234 1.29556,1.60158 1.94334,3.50913 1.94336,5.72266 -2e-5,3.38543 -1.33791,6.52344 -4.01367,9.41406 -2.67579,2.89063 -5.45899,4.33594 -8.34961,4.33594 z m -2.71484,-7.55859 c -10e-6,1.31511 0.27669,2.38932 0.83008,3.22265 0.55338,0.83334 1.2858,1.25001 2.19726,1.25 1.9401,10e-6 3.88671,-1.06445 5.83985,-3.19336 1.95311,-2.1289 2.92967,-4.49543 2.92968,-7.09961 -1e-5,-1.60154 -0.37436,-2.90037 -1.12304,-3.89648 -0.74872,-0.99608 -1.75457,-1.49412 -3.01758,-1.49414 -2.09637,2e-5 -3.89649,1.28582 -5.40039,3.85742 -1.50391,2.57163 -2.25587,5.0228 -2.25586,7.35352 z"
         style="font-family:Segoe Print;-inkscape-font-specification:Segoe Print"
         id="path3043" />
      <path
         d="m 289.52333,600.82233 c 1.66666,-3.03384 3.65884,-5.49152 5.97656,-7.37305 2.31769,-1.88149 4.40753,-2.82224 6.26953,-2.82227 1.02863,3e-5 1.90102,0.47529 2.61719,1.42579 0.71612,0.95054 1.07419,2.10939 1.07422,3.47656 -3e-5,4.04949 -1.52672,7.84831 -4.58008,11.39648 -3.0534,3.54818 -6.27931,5.32227 -9.67774,5.32227 -0.92448,0 -1.77409,-0.25065 -2.54882,-0.75196 -0.77475,-0.5013 -1.20769,-1.12955 -1.29883,-1.88476 -0.0521,-0.61198 -0.22787,-1.06771 -0.52735,-1.36719 -0.55989,-0.55989 -0.83984,-1.15885 -0.83984,-1.79687 0,-1.18489 0.32552,-3.71744 0.97656,-7.59766 l 2.01172,-11.67969 c 0.6901,-3.91924 1.19466,-6.34111 1.51367,-7.26562 0.31901,-0.92445 0.67382,-1.54294 1.06446,-1.85547 0.39061,-0.31247 0.87238,-0.46872 1.44531,-0.46875 0.91145,3e-5 1.36718,0.78779 1.36719,2.36328 -10e-6,1.49743 -0.50132,3.59378 -1.50391,6.28906 -0.96355,2.59117 -2.07683,7.45445 -3.33984,14.58985 z m -0.46875,6.5039 c 0.67707,1.26303 1.49739,1.89454 2.46093,1.89453 1.48437,10e-6 3.05338,-0.61523 4.70704,-1.8457 1.65363,-1.23046 3.08266,-2.96223 4.2871,-5.19531 1.20441,-2.23306 1.80663,-4.11783 1.80665,-5.6543 -2e-5,-0.69009 -0.12372,-1.28253 -0.3711,-1.77734 -0.24741,-0.49478 -0.55991,-0.74217 -0.9375,-0.74219 -1.80991,2e-5 -4.02019,1.48114 -6.63086,4.44336 -2.61068,2.96225 -4.38477,5.92123 -5.32226,8.87695 z"
         style="font-family:Segoe Print;-inkscape-font-specification:Segoe Print"
         id="path3045" />
      <path
         d="m 315.51942,585.78326 c -0.27345,3e-5 -0.48178,-0.29294 -0.625,-0.8789 -0.0521,-0.18227 -0.12371,-0.38409 -0.21484,-0.60547 -0.35157,-0.84633 -0.52735,-1.582 -0.52735,-2.20703 0,-0.52081 0.30924,-1.0514 0.92774,-1.5918 0.61848,-0.54033 1.30533,-0.81051 2.06054,-0.81055 0.3776,4e-5 0.80077,0.14652 1.26954,0.43946 0.46873,0.293 0.70311,0.5762 0.70312,0.84961 -1e-5,0.42971 -0.15952,1.15888 -0.47852,2.1875 -0.31902,1.02867 -0.82683,1.72203 -1.52343,2.08007 -0.69663,0.3581 -1.22723,0.53714 -1.5918,0.53711 z m -2.55859,21.81641 c -10e-6,0.98959 0.13671,2.10287 0.41015,3.33984 0.0521,0.23438 0.0781,0.42969 0.0781,0.58594 -1e-5,0.23438 -0.21485,0.53711 -0.64453,0.9082 -0.4297,0.3711 -0.88543,0.55664 -1.36719,0.55665 -1.26303,-1e-5 -1.89453,-1.15886 -1.89453,-3.47657 0,-2.39583 0.49479,-6.18488 1.48437,-11.36718 0.33854,-1.80988 0.50781,-2.92316 0.50782,-3.33985 -1e-5,-0.82029 0.14973,-1.52016 0.44921,-2.09961 0.29948,-0.5794 0.72265,-0.86912 1.26954,-0.86914 0.66405,2e-5 1.18814,0.15953 1.57226,0.47852 0.38411,0.31903 0.57616,0.67384 0.57617,1.06445 -10e-6,0.39064 -0.0911,0.90497 -0.27343,1.54297 -0.97657,3.43751 -1.58204,5.89845 -1.81641,7.38281 -0.23438,1.48438 -0.35157,3.24871 -0.35156,5.29297 z"
         style="font-family:Segoe Print;-inkscape-font-specification:Segoe Print"
         id="path3047" />
      <path
         d="m 327.6288,578.8692 c 0.93749,3e-5 1.40623,0.59899 1.40625,1.79688 -2e-5,1.06774 -0.56642,3.6068 -1.69922,7.61718 -0.71616,2.52607 -1.26954,5.31252 -1.66016,8.35938 -0.39063,3.04689 -0.58594,5.43621 -0.58594,7.16797 0,2.14844 0.13671,4.28386 0.41016,6.40625 0.0521,0.40365 0.0781,0.69661 0.0781,0.8789 0,0.65105 -0.22136,1.21094 -0.66406,1.67969 -0.44271,0.46875 -0.91146,0.70313 -1.40625,0.70313 -0.69011,0 -1.16862,-0.42969 -1.43555,-1.28907 -0.26693,-0.85937 -0.40039,-2.24609 -0.40039,-4.16015 0,-4.36197 0.52409,-9.76561 1.57227,-16.21094 1.04817,-6.44529 1.8815,-10.21481 2.5,-11.30859 0.61848,-1.09372 1.24674,-1.6406 1.88477,-1.64063 z"
         style="font-family:Segoe Print;-inkscape-font-specification:Segoe Print"
         id="path3049" />
      <path
         d="m 348.99598,605.31451 c -2e-5,1.32813 -1.17515,2.9297 -3.52539,4.80469 -2.35027,1.875 -4.7754,2.8125 -7.27539,2.8125 -2.09636,0 -3.7142,-0.61849 -4.85351,-1.85547 -1.13933,-1.23697 -1.70899,-2.96223 -1.70899,-5.17578 0,-3.72395 1.25651,-7.26561 3.76953,-10.625 2.51302,-3.35935 5.26041,-5.03904 8.24219,-5.03906 0.97655,2e-5 1.77407,0.31903 2.39258,0.95703 0.61847,0.63804 0.92772,1.40627 0.92773,2.30469 -10e-6,2.00522 -0.98309,3.92579 -2.94922,5.76172 -1.96615,1.83594 -4.59636,3.63933 -7.89062,5.41015 -0.67709,0.35157 -1.01563,0.8073 -1.01563,1.36719 0,1.08073 0.3125,1.94662 0.9375,2.59766 0.625,0.65104 1.54948,0.97656 2.77344,0.97656 2.79947,0 5.65754,-1.54948 8.57422,-4.64844 0.42967,-0.42968 0.75519,-0.64452 0.97656,-0.64453 0.41665,1e-5 0.62498,0.33204 0.625,0.99609 z m -13.57422,-3.04687 c 5.52083,-3.28124 8.28124,-5.91795 8.28125,-7.91016 -1e-5,-0.78123 -0.35157,-1.17185 -1.05468,-1.17187 -1.19793,2e-5 -2.54884,0.87892 -4.05274,2.63672 -1.50391,1.75782 -2.56185,3.90626 -3.17383,6.44531 z"
         style="font-family:Segoe Print;-inkscape-font-specification:Segoe Print"
         id="path3051" />
    </g>
  </g>
</svg>
