<?xml version="1.0" encoding="UTF-8" standalone="no"?>
<!-- Created with Inkscape (http://www.inkscape.org/) -->
<svg id="svg2" xmlns:rdf="http://www.w3.org/1999/02/22-rdf-syntax-ns#" xmlns="http://www.w3.org/2000/svg" height="524.41" width="372.05" version="1.1" xmlns:cc="http://creativecommons.org/ns#" xmlns:dc="http://purl.org/dc/elements/1.1/">
 <metadata id="metadata54">
  <rdf:RDF>
   <cc:Work rdf:about="">
    <dc:format>image/svg+xml</dc:format>
    <dc:type rdf:resource="http://purl.org/dc/dcmitype/StillImage"/>
    <dc:title/>
   </cc:Work>
  </rdf:RDF>
 </metadata>
 <defs id="defs4"></defs>
 <g id="layer1" transform="translate(0,-527.95269)">
  <path id="path4000" stroke-linejoin="round" d="m161.1,751.93-16.646,10.105,0,0" stroke="#000" stroke-linecap="round" stroke-miterlimit="4" stroke-dasharray="none" stroke-width="2.49745941" fill="none"/>
  <path id="path4004" stroke-linejoin="round" d="m293.57,406.65c0,2.7614-1.4391,5-3.2143,5s-3.2143-2.2386-3.2143-5,1.4391-5,3.2143-5,3.2143,2.2386,3.2143,5z" transform="matrix(0.73323297,-0.26569999,0.27716438,0.76487042,-167.44309,542.31447)" stroke="#241c1c" stroke-linecap="round" stroke-miterlimit="4" stroke-dasharray="none" stroke-width="3" fill="#000"/>
  <path id="path4004-1" stroke-linejoin="round" d="m293.57,406.65c0,2.7614-1.4391,5-3.2143,5s-3.2143-2.2386-3.2143-5,1.4391-5,3.2143-5,3.2143,2.2386,3.2143,5z" transform="matrix(0.74212674,0.23973932,-0.25008359,0.77414797,88.727789,392.21493)" stroke="#241c1c" stroke-linecap="round" stroke-miterlimit="4" stroke-dasharray="none" stroke-width="3" fill="#000"/>
  <path id="path4000-7" stroke-linejoin="round" d="m218.69,761.44-16.613-13.076,0,0" stroke="#000" stroke-linecap="round" stroke-miterlimit="4" stroke-dasharray="none" stroke-width="2.85135889" fill="none"/>
  <path id="path4053" stroke-linejoin="round" d="m136.44,797.91c22.828-35.727,83.566-11.883,84.351-4.2495,9.2757,7.5542-2.6194,35.613-13.602,44.003-7.7899,7.0594-41.721,11.865-59.24,2.3786-12.903-11.992-15.273-30.574-11.508-42.132z" stroke="#000" stroke-linecap="round" stroke-miterlimit="4" stroke-dasharray="none" stroke-width="4.16243219" fill="none"/>
  <path id="path4055" stroke-linejoin="round" d="m176.52,778.5-0.65452,32.474" stroke="#000" stroke-linecap="round" stroke-miterlimit="4" stroke-dasharray="none" stroke-width="3.48015118" fill="none"/>
  <path id="path4061" stroke-linejoin="round" d="m175.89,826.03,0.2973,18.771" stroke="#000" stroke-linecap="round" stroke-miterlimit="4" stroke-dasharray="none" stroke-width="3.16246152" fill="none"/>
  <path id="path4065" stroke-linejoin="round" d="m168.69,815.4c2.1984-2.229,10.009-3.8714,14.569,0-0.002,2.4743,0.55744,5.4666-6.541,8.9195-6.9202,0.47828-7.326-3.1792-8.0276-8.9195z" stroke="#000" stroke-linecap="round" stroke-miterlimit="4" stroke-dasharray="none" stroke-width="3.3299458" fill="none"/>
  <path id="path4067" stroke-linejoin="round" d="m220.11,823.29c-5.804-1.5934,18.587,7.1416,18.921-65.173-0.14706-2.7424-1.9416-10.943-5.6081-14.151-13.929-12.186-65.107-31.598-96.145-7.7132-7.2843,3.9535-25.194,52.407-2.5228,79.048" stroke="#000" stroke-linecap="round" stroke-miterlimit="4" stroke-dasharray="none" stroke-width="3.3299458" fill="none"/>
  <path id="path4069" stroke-linejoin="round" d="m145.27,731.2c3.1869-7.8149,9.0139-6.3789,17.44-18.772,7.2643-10.684-7.6835-17.196-7.0621-29.125,0.58594-11.249,10.192-14.589,13.494-19.298,4.3071-6.1422,3.9767-12.902,6.402-19.842,6.4684,8.1737,14.287,10.946,17.651,31.537,1.2758,7.6131,0.3765,10.558-11.878,25.219-0.8517,10.983,5.9175,19.028,10.205,24.815,3.7771-3.4859-0.34742-7.5269,2.8762-11.935,3.8429-5.2554,13.435-4.2289,17.935-10.286,4.0764-5.4866,5.0744-18.59,8.328-26.671,2.7156-6.745,7.6402-8.4609,11.226-13.757,3.5405-1.7554,18.386,25.42,18.5,34.549l-0.64775,9.7655c-3.6355,11.277-15.435,11.369-21.686,14.095-0.37923,6.5992,4.125,11.517-0.37138,18.116" stroke="#000" stroke-linecap="round" stroke-miterlimit="4" stroke-dasharray="none" stroke-width="4.16243219" fill="none"/>
  <path id="path4071" stroke-linejoin="round" d="m229.78,737.09c4.1401-7.258,9.9701-8.9022,15.557-11.353,4.6232,16.766,1.3814,26.382-6.307,31.956" stroke="#000" stroke-linecap="round" stroke-miterlimit="4" stroke-dasharray="none" stroke-width="3.3299458" fill="none"/>
  <path id="path4073" stroke-linejoin="round" d="m145.27,732.04c-1.6642-10.008-6.0491-16.616-12.194-21.023-11.405,18.185-4.2361,27.094-3.3638,37.422" stroke="#000" stroke-linecap="round" stroke-miterlimit="4" stroke-dasharray="none" stroke-width="3.3299458" fill="none"/>
  <path id="path4075" stroke-linejoin="round" d="m220.11,823.71c35.303,47.147,82.238,14.148,99.651,19.342,18.493,6.9241,11.32,20.204-13.035,32.797-16.587,4.8135-41.414,14.176-67.275,7.148-0.36557,1.2198-1.7514-1.11,0,9.6708,2.0657,20.232,27.105,44.205,0.84094,56.343v-0.42047" stroke="#000" stroke-linecap="round" stroke-miterlimit="4" stroke-dasharray="none" stroke-width="3.3299458" fill="none"/>
  <path id="path4077" stroke-linejoin="round" d="m138.96,832.12c-7.6099,2.4388-12.216,5.4237-7.5684,10.091,0.0402,12.197-71.554-4.0423-93.748-6.4621-5.4125-0.59014-4.5506,4.81-4.5904,7.303-0.40937,10.149,5.5893,15.159,20.552,23.126,25.68,7.8021,44.724,12.76,62.65,17.239" stroke="#000" stroke-linecap="round" stroke-miterlimit="4" stroke-dasharray="none" stroke-width="3.3299458" fill="none"/>
  <path id="path4079" stroke-linejoin="round" d="m393.45,564.46c0,7.2526-16.394,13.132-36.618,13.132s-36.618-5.8794-36.618-13.132,16.394-13.132,36.618-13.132,36.618,5.8794,36.618,13.132z" transform="matrix(0.83248648,0,0,0.83248648,-150.73967,478.2606)" stroke="#241c1c" stroke-linecap="round" stroke-miterlimit="4" stroke-dasharray="none" stroke-width="4" fill="#000"/>
  <path id="path4081" stroke-linejoin="round" d="m464.67,565.47c0,7.5315-14.698,13.637-32.83,13.637-18.131,0-32.83-6.1055-32.83-13.637s14.698-13.637,32.83-13.637c18.131,0,32.83,6.1055,32.83,13.637z" transform="matrix(0.83248648,0,0,0.83248648,-148.21686,479.10153)" stroke="#241c1c" stroke-linecap="round" stroke-miterlimit="4" stroke-dasharray="none" stroke-width="4" fill="#000"/>
  <path id="path4083" stroke-linejoin="round" d="m176.81,949.43c7.148,0.84093,7.148,0.84093,7.148,0.84093" stroke="#000" stroke-linecap="round" stroke-miterlimit="4" stroke-dasharray="none" stroke-width="3.3299458" fill="none"/>
  <path id="path4085" stroke-linejoin="round" d="m115.84,946.48c-32.559-11.784,4.3343-30.375,1.2104-43.538l-0.2463-0.29734" stroke="#000" stroke-linecap="round" stroke-miterlimit="4" stroke-dasharray="none" stroke-width="3.36055422" fill="none"/>
  <path id="path4091" stroke-linejoin="round" d="m198.25,847.67,17.66,2.5228c14.409,1.9403,18.825-6.1531,17.344-12.614" stroke="#000" stroke-linecap="round" stroke-miterlimit="4" stroke-dasharray="none" stroke-width="3.3299458" fill="none"/>
  <path id="path4093" stroke-linejoin="round" d="m144.98,837.4c-19.898,23.483-19.862,51.979-22.833,68.295,4.385,5.9661,11.439,2.7906,16.819,3.7842-9.2812-32.281,15.344-49.803,24.387-58.025,6.7989,12.016,39.362,7.5106,50.929-1.4191" stroke="#000" stroke-linecap="round" stroke-miterlimit="4" stroke-dasharray="none" stroke-width="3.3299458" fill="none"/>
  <path id="path4095" stroke-linejoin="round" d="m130.97,841.79,5.8866,6.7275" stroke="#000" stroke-linecap="round" stroke-miterlimit="4" stroke-dasharray="none" stroke-width="3.3299458" fill="none"/>
  <path id="path4097" stroke-linejoin="round" d="m125.09,878.79c-5.069,3.387-5.37,1.2758-13.77,8.4094-1.8324,3.5914,1.0934,8.5696-0.31535,13.77-0.87699,1.6203,6.7758,0.88979,10.512,1.1563" stroke="#000" stroke-linecap="round" stroke-miterlimit="4" stroke-dasharray="none" stroke-width="3.3299458" fill="none"/>
  <path id="path4099" stroke-linejoin="round" d="m137.38,892.95c3.8259-1.5611,19.2-12.261,13.082-29.137" stroke="#000" stroke-linecap="round" stroke-miterlimit="4" stroke-dasharray="none" stroke-width="3.3299458" fill="none"/>
  <path id="path4101" stroke-linejoin="round" d="m150.02,880.32c-0.82121,18.765-0.38408,38.446,8.1762,48.611,19.015,8.6792,21.062,2.9143,23,1.8349,47.805-37.292,22.232-52.408,33.193-78.84" stroke="#000" stroke-linecap="round" stroke-miterlimit="4" stroke-dasharray="none" stroke-width="3.3299458" fill="none"/>
  <path id="path4103" stroke-linejoin="round" d="m301.5,843.9c8.6885,5.2968,3.3691,22.588,3.5678,32.11" stroke="#000" stroke-linecap="round" stroke-miterlimit="4" stroke-dasharray="none" stroke-width="2.49745941" fill="none"/>
  <path id="path4109" stroke-linejoin="round" d="m55.921,838.84c3.4886,12.388,2.6909,20.195,0.6307,27.541" stroke="#000" stroke-linecap="round" stroke-miterlimit="4" stroke-dasharray="none" stroke-width="3.3299458" fill="none"/>
  <path id="path4111" stroke-linejoin="round" d="m54.503,864.61c-0.68549-0.27926-4.5092-2.3748-6.5173-3.5722-5.5073-3.2836-8.932-6.1014-10.872-8.945-0.6165-0.90378-1.4363-2.6085-1.7228-3.5825-0.52405-1.7816-0.59058-2.4408-0.59424-5.8866-0.0042-3.6101,0.07043-4.1476,0.64967-4.7002,0.63367-0.60456,0.89109-0.61587,4.2377-0.18656,3.409,0.43739,13.327,1.9748,14.573,2.259,0.19952,0.0454,0.28022,0.27002,0.65649,1.8252,0.73152,3.0238,1.1781,5.5363,1.4971,8.4236,0.19964,1.8067,0.17056,6.6532-0.05047,8.4094-0.26934,2.1403-1.0146,5.9003-1.2125,6.1177-0.03693,0.0404-0.32707-0.0308-0.64506-0.16194z" stroke="#241c1c" stroke-linecap="round" stroke-miterlimit="4" stroke-dasharray="none" stroke-width="0.42046919" fill="#000"/>
  <path id="path4113" stroke-linejoin="round" d="m306.79,871.7c0.19313-0.89937,0.5229-5.7828,0.73283-10.852,0.31641-7.6411,0.2189-9.6743-0.57049-11.893-0.5237-1.4717-0.95607-2.8514-0.96083-3.066-0.0119-0.5361,5.261-1.2154,9.4345-1.2154,2.5127,0,4.2527,0.41004,6.4369,1.5168,9.0724,4.5973,7.9909,11.557-3.0593,19.688-3.9474,2.9046-11.291,7.4561-12.03,7.4561-0.18414,0-0.17675-0.73585,0.0165-1.6352z" stroke="#241c1c" stroke-linecap="round" stroke-miterlimit="4" stroke-dasharray="none" stroke-width="2.37853289" fill="#000"/>
  <g id="text3020" style="letter-spacing:0px;word-spacing:0px;" font-weight="normal" font-size="40px" font-style="normal" font-stretch="normal" line-height="125%" font-variant="normal" font-family="Segoe Print" fill="#000">
   <path id="path3025" d="m38.898,584.34c3.8281-0.62497,6.6211-0.93747,8.3789-0.9375,2.7474,0.00003,4.9414,0.65107,6.582,1.9531,1.6406,1.3021,2.4609,2.9362,2.4609,4.9023-0.000026,1.9662-0.86917,3.8184-2.6074,5.5566-1.7383,1.7383-3.9225,3.1022-6.5527,4.0918-0.32554,0.13022-0.4883,0.26694-0.48828,0.41015-0.000016,0.22137,1.3444,1.3705,4.0332,3.4473s5.1595,3.8118,7.4121,5.2051c0.63799,0.39063,0.957,0.90495,0.95703,1.543-0.000029,0.41666-0.21813,0.83008-0.6543,1.2402-0.43622,0.41016-0.84313,0.61523-1.2207,0.61524-0.76826-0.00001-1.9955-0.63803-3.6816-1.9141-1.6862-1.276-3.4343-2.6823-5.2441-4.2188-3.9193-3.2943-6.1068-4.9544-6.5625-4.9805-0.88543-0.026-1.5104-0.14972-1.875-0.37109-0.36459-0.22134-0.54688-0.61848-0.54688-1.1914-0.000009-0.49477,0.23437-0.92772,0.70312-1.2988,0.46874-0.37108,1.0221-0.55663,1.6602-0.55664,0.22134,0.00001,0.5729,0.0326,1.0547,0.0976,0.48176,0.0781,0.83983,0.1172,1.0742,0.11719,1.0417,0.00001,2.8222-0.77473,5.3418-2.3242,2.5195-1.5495,3.7793-3.3724,3.7793-5.4688-0.000022-1.1068-0.56317-2.0573-1.6895-2.8516-1.1263-0.79425-2.5619-1.1914-4.3066-1.1914-1.3021,0.00003-2.6042,0.0912-3.9062,0.27344-1.3021,0.18232-2.1322,0.33857-2.4902,0.46875-0.35808,0.13023-0.6478,0.46552-0.86914,1.0059-0.22136,0.54039-0.59246,2.2624-1.1133,5.166-0.52084,2.9037-0.92774,5.6446-1.2207,8.2227-0.29298,2.5781-0.43946,4.4727-0.43945,5.6836-0.000007,0.93751,0.0651,1.7513,0.19531,2.4414,0.11718,0.69011,0.17578,1.2435,0.17578,1.6602-0.000007,0.39062-0.20508,0.79427-0.61524,1.2109-0.41016,0.41667-0.85612,0.625-1.3379,0.625-1.3672,0-2.0508-1.1068-2.0508-3.3203-0.000003-5.2213,0.91796-12.168,2.7539-20.84,0.09114-0.45571,0.13671-0.72263,0.13672-0.80078-0.000005-0.0781-0.04558-0.19529-0.13672-0.35157-0.52084-0.82028-0.78126-1.3672-0.78125-1.6406-0.000005-0.49477,0.24088-0.92445,0.72266-1.2891,0.48176-0.36456,0.91796-0.54685,1.3086-0.54688z"/>
   <path id="path3027" d="m78.762,605.31c-0.000019,1.3281-1.1751,2.9297-3.5254,4.8047s-4.7754,2.8125-7.2754,2.8125c-2.0964,0-3.7142-0.61849-4.8535-1.8555s-1.709-2.9622-1.709-5.1758c-0.000002-3.724,1.2565-7.2656,3.7695-10.625s5.2604-5.039,8.2422-5.0391c0.97655,0.00002,1.7741,0.31903,2.3926,0.95703,0.61847,0.63804,0.92772,1.4063,0.92773,2.3047-0.000017,2.0052-0.98309,3.9258-2.9492,5.7617-1.9662,1.8359-4.5964,3.6393-7.8906,5.4102-0.67709,0.35157-1.0156,0.8073-1.0156,1.3672-0.000005,1.0807,0.3125,1.9466,0.9375,2.5977,0.62499,0.65104,1.5495,0.97656,2.7734,0.97656,2.7995,0,5.6575-1.5495,8.5742-4.6484,0.42967-0.42968,0.75519-0.64452,0.97656-0.64453,0.41665,0.00001,0.62498,0.33204,0.625,0.99609zm-13.574-3.0469c5.5208-3.2812,8.2812-5.918,8.2812-7.9102-0.000014-0.78123-0.35158-1.1718-1.0547-1.1719-1.1979,0.00002-2.5488,0.87892-4.0527,2.6367s-2.5619,3.9063-3.1738,6.4453z"/>
   <path id="path3029" d="m89.113,585.78c-0.27345,0.00003-0.48178-0.29294-0.625-0.8789-0.05209-0.18227-0.12371-0.38409-0.21484-0.60547-0.35157-0.84633-0.52735-1.582-0.52734-2.207-0.000007-0.52081,0.30924-1.0514,0.92773-1.5918,0.61848-0.54033,1.3053-0.81051,2.0605-0.81055,0.37759,0.00004,0.80077,0.14652,1.2695,0.43946,0.46874,0.293,0.70311,0.5762,0.70312,0.84961-0.000013,0.42971-0.15952,1.1589-0.47852,2.1875-0.31902,1.0287-0.82683,1.722-1.5234,2.0801-0.69662,0.3581-1.2272,0.53714-1.5918,0.53711zm-2.5586,21.816c-0.000006,0.98959,0.13671,2.1029,0.41016,3.3398,0.05208,0.23438,0.07812,0.42969,0.07813,0.58594-0.000007,0.23438-0.21485,0.53711-0.64453,0.9082-0.42969,0.3711-0.88542,0.55664-1.3672,0.55665-1.263-0.00001-1.8945-1.1589-1.8945-3.4766-0.000003-2.3958,0.49479-6.1849,1.4844-11.367,0.33854-1.8099,0.50781-2.9232,0.50781-3.3398-0.000005-0.82029,0.14973-1.5202,0.44922-2.0996,0.29947-0.5794,0.72265-0.86912,1.2695-0.86914,0.66406,0.00002,1.1881,0.15953,1.5723,0.47852,0.38411,0.31903,0.57616,0.67384,0.57617,1.0644-0.000009,0.39064-0.09115,0.90497-0.27344,1.543-0.97657,3.4375-1.582,5.8984-1.8164,7.3828-0.23438,1.4844-0.35157,3.2487-0.35156,5.293z"/>
   <path id="path3031" d="m107.69,596.92c-0.6771,0.00001-1.416,0.44272-2.2168,1.3281-0.80079,0.88543-2.0215,2.8711-3.6621,5.957-2.1615,4.1406-3.5579,6.4974-4.1894,7.0703-0.63152,0.57291-1.1556,0.85937-1.5723,0.85937-1.5365,0-2.3047-0.74219-2.3047-2.2266-0.000002-0.625,0.10416-1.5104,0.3125-2.6562,0.71614-3.9323,1.0742-8.0794,1.0742-12.441-0.000004-0.49477,0.21158-1.0449,0.63476-1.6504,0.42317-0.60545,0.82356-0.90818,1.2012-0.9082,0.67708,0.00002,1.1588,0.20835,1.4453,0.625,0.28645,0.41668,0.42968,1.2565,0.42969,2.5195-0.000007,1.3151-0.39063,4.0234-1.1719,8.125-0.26042,1.3542-0.39063,2.2136-0.39062,2.5781-0.000005,0.20834,0.05208,0.31251,0.15625,0.3125,0.19531,0.00001,1.1003-1.556,2.7148-4.668,1.6276-3.164,3.0534-5.3906,4.2773-6.6797,1.224-1.289,2.5716-1.9336,4.043-1.9336,1.1719,0.00002,2.1256,0.53388,2.8613,1.6016,0.73565,1.0677,1.2728,3.0143,1.6113,5.8398,0.36456,3.2162,0.69333,5.2181,0.98632,6.0059,0.29295,0.78776,0.75844,1.1816,1.3965,1.1816,0.40362,0,0.91143-0.14322,1.5234-0.42969,0.10414-0.0521,0.18226-0.0781,0.23437-0.0781,0.55987,0,0.83982,0.32552,0.83984,0.97656-0.00002,0.57292-0.38414,1.1816-1.1523,1.8262-0.76825,0.64453-1.6927,0.9668-2.7734,0.9668-1.1068,0-1.9629-0.43945-2.5684-1.3184-0.60548-0.8789-1.084-3.2259-1.4355-7.041-0.3646-3.8281-1.1328-5.7422-2.3047-5.7422z"/>
   <path id="path3033" d="m134.95,603.85c-1.7448,2.7995-3.5938,4.9577-5.5469,6.4746s-3.75,2.2754-5.3906,2.2754c-1.263,0-2.2624-0.48503-2.998-1.4551-0.73568-0.97005-1.1035-2.2624-1.1035-3.877,0-3.2943,1.3379-6.6732,4.0137-10.137,2.6758-3.4635,5.5631-5.1953,8.6621-5.1953,1.3542,0.00002,2.6107,0.57944,3.7695,1.7383l2.7344-12.773c0.19529-0.87236,0.55662-1.4583,1.084-1.7578,0.52733-0.29945,0.94074-0.44919,1.2402-0.44922,0.91143,0.00003,1.3672,0.80732,1.3672,2.4219-0.00003,0.28648-0.29951,1.3542-0.89844,3.2031-0.95055,2.8646-1.8522,6.3835-2.7051,10.557-0.85288,4.1732-1.2793,7.5228-1.2793,10.049-0.00002,2.6042,0.56639,3.9062,1.6992,3.9062,0.72915,0,1.4844-0.24088,2.2656-0.72266,0.32549-0.23437,0.63148-0.35156,0.91797-0.35156,0.41664,0,0.62497,0.27344,0.625,0.82031-0.00003,0.66407-0.58271,1.4323-1.748,2.3047-1.1654,0.8724-2.36,1.3086-3.584,1.3086-2.1484,0-3.2227-2.0703-3.2226-6.2109-0.00002-0.70312,0.0325-1.4128,0.0977-2.1289zm-2.5586-9.1406c-2.1094,0.00001-4.1992,1.429-6.2695,4.2871s-3.1055,5.4981-3.1055,7.9199c0,1.6276,0.54036,2.4414,1.6211,2.4414,1.0156,0.00001,2.2493-0.53385,3.7012-1.6016,1.4518-1.0677,2.946-2.7702,4.4824-5.1074s2.3047-4.0918,2.3047-5.2637c-0.00002-0.5729-0.26369-1.1621-0.79102-1.7676-0.52736-0.60545-1.1752-0.90819-1.9434-0.9082z"/>
   <path id="path3035" d="m164.15,605.31c-0.00002,1.3281-1.1752,2.9297-3.5254,4.8047-2.3503,1.875-4.7754,2.8125-7.2754,2.8125-2.0964,0-3.7142-0.61849-4.8535-1.8555s-1.709-2.9622-1.709-5.1758c0-3.724,1.2565-7.2656,3.7695-10.625s5.2604-5.039,8.2422-5.0391c0.97655,0.00002,1.7741,0.31903,2.3926,0.95703,0.61847,0.63804,0.92772,1.4063,0.92773,2.3047-0.00001,2.0052-0.98309,3.9258-2.9492,5.7617-1.9662,1.8359-4.5964,3.6393-7.8906,5.4102-0.67709,0.35157-1.0156,0.8073-1.0156,1.3672,0,1.0807,0.3125,1.9466,0.9375,2.5977,0.625,0.65104,1.5495,0.97656,2.7734,0.97656,2.7995,0,5.6575-1.5495,8.5742-4.6484,0.42967-0.42968,0.75519-0.64452,0.97656-0.64453,0.41665,0.00001,0.62498,0.33204,0.625,0.99609zm-13.574-3.0469c5.5208-3.2812,8.2812-5.918,8.2812-7.9102-0.00001-0.78123-0.35157-1.1718-1.0547-1.1719-1.1979,0.00002-2.5488,0.87892-4.0527,2.6367s-2.5618,3.9063-3.1738,6.4453z"/>
   <path id="path3037" d="m184.93,605.31c-0.00002,1.3281-1.1752,2.9297-3.5254,4.8047-2.3503,1.875-4.7754,2.8125-7.2754,2.8125-2.0964,0-3.7142-0.61849-4.8535-1.8555s-1.709-2.9622-1.709-5.1758c0-3.724,1.2565-7.2656,3.7695-10.625s5.2604-5.039,8.2422-5.0391c0.97655,0.00002,1.7741,0.31903,2.3926,0.95703,0.61847,0.63804,0.92772,1.4063,0.92773,2.3047-0.00001,2.0052-0.98309,3.9258-2.9492,5.7617-1.9662,1.8359-4.5964,3.6393-7.8906,5.4102-0.67709,0.35157-1.0156,0.8073-1.0156,1.3672,0,1.0807,0.3125,1.9466,0.9375,2.5977,0.625,0.65104,1.5495,0.97656,2.7734,0.97656,2.7995,0,5.6575-1.5495,8.5742-4.6484,0.42967-0.42968,0.75519-0.64452,0.97656-0.64453,0.41665,0.00001,0.62498,0.33204,0.625,0.99609zm-13.574-3.0469c5.5208-3.2812,8.2812-5.918,8.2812-7.9102-0.00001-0.78123-0.35157-1.1718-1.0547-1.1719-1.1979,0.00002-2.5488,0.87892-4.0527,2.6367s-2.5618,3.9063-3.1738,6.4453z"/>
   <path id="path3039" d="m192.94,604.18c0.1302-0.23437,0.28645-0.55989,0.46875-0.97656,0.8854-2.0312,1.6992-3.623,2.4414-4.7754,0.74218-1.1523,1.5592-2.2558,2.4512-3.3106,0.89192-1.0547,1.7057-1.8554,2.4414-2.4023,0.73566-0.54686,1.403-0.92772,2.002-1.1426,0.59894-0.21482,1.1784-0.32225,1.7383-0.32227,1.1328,0.00002,2.0573,0.34182,2.7734,1.0254,0.71613,0.68362,1.0742,1.4811,1.0742,2.3926-0.00002,0.40367-0.12697,0.76825-0.38086,1.0938-0.25393,0.32554-0.6413,0.4883-1.1621,0.48828-0.54689,0.00002-1.0482-0.24087-1.5039-0.72265-0.46877-0.48176-0.95705-0.72264-1.4648-0.72266-1.3542,0.00002-3.2292,1.6406-5.625,4.9219s-3.8542,6.8945-4.375,10.84c-0.13021,1.0156-0.37761,1.6862-0.74219,2.0117-0.36459,0.32552-0.87891,0.48828-1.543,0.48828-0.63803,0-1.1003-0.47526-1.3867-1.4258-0.28646-0.95052-0.42969-2.5521-0.42969-4.8047,0-0.61197,0.0326-1.9596,0.0977-4.043,0.0781-2.4609,0.23437-4.4466,0.46875-5.957,0.039-0.24738,0.10416-0.82681,0.19531-1.7383,0.0911-1.0026,0.20507-1.6992,0.34179-2.0898,0.13672-0.39061,0.41667-0.75519,0.83985-1.0938,0.42317-0.33852,0.88215-0.5078,1.377-0.50782,0.48177,0.00002,0.84309,0.15302,1.084,0.45899,0.24087,0.30601,0.36132,0.63478,0.36132,0.98633,0,0.50783-0.13021,1.224-0.39062,2.1484-0.29949,1.0287-0.47527,1.7383-0.52734,2.1289-0.0391,0.44272-0.11069,0.90496-0.21485,1.3867-0.13021,0.55991-0.26042,2.0313-0.39062,4.4141l-0.0195,0.72266z"/>
   <path id="path3041" d="m253.96,588.91c-1.2891,1.4323-3.2813,3.9909-5.9766,7.6758-2.6953,3.6719-4.5899,6.0352-5.6836,7.0898-1.0938,1.0547-1.9922,1.582-2.6953,1.582-0.53387,0.00001-1.0547-0.40038-1.5625-1.2012-0.50783-0.80077-1.1654-2.4186-1.9726-4.8535-1.6667-4.9609-2.7149-7.819-3.1445-8.5742-0.15626,0.44273-0.33204,1.1654-0.52734,2.168-0.41668,2.1094-0.97006,4.681-1.6602,7.7148-1.3412,5.8203-2.1029,9.6745-2.2852,11.562-0.026,0.23437-0.23764,0.48828-0.63477,0.76172-0.39714,0.27343-0.7194,0.41015-0.96679,0.41015-0.46876,0-0.9017-0.23437-1.2988-0.70312-0.39714-0.46875-0.59571-0.92448-0.59571-1.3672,0-1.1458,0.37761-3.1445,1.1328-5.9961l1.6992-6.4062c1.0417-4.0364,1.6862-7.0052,1.9336-8.9062,0.24739-1.901,0.37109-3.3984,0.37109-4.4922,0-1.1328,0.89192-1.6992,2.6758-1.6992,0.3776,0.00003,0.77473,0.3288,1.1914,0.98633,0.41666,0.65758,0.69009,1.2338,0.82031,1.7285,0.16926,0.49482,0.37108,1.0482,0.60547,1.6602l2.6172,7.3242c1.0286,2.9948,1.6634,4.6842,1.9043,5.0684,0.24086,0.38412,0.43943,0.57618,0.5957,0.57617,0.66404-0.14322,3.0143-3.0013,7.0508-8.5742,4.4922-6.1849,7.0573-9.2773,7.6953-9.2773,0.5208,0.00003,1.097,0.2051,1.7285,0.61523,0.63147,0.41019,0.94723,0.765,0.94726,1.0644-0.00003,0.13024-0.37763,2.9883-1.1328,8.5742-0.27347,2.0703-0.52738,4.554-0.76172,7.4512-0.2344,2.8972-0.35159,4.528-0.35156,4.8926-0.00003,0.66407,0.11716,1.4063,0.35156,2.2266,0.2083,0.72917,0.31247,1.3151,0.3125,1.7578-0.00003,0.35156-0.0651,0.86263-0.19531,1.5332-0.13024,0.67057-0.41344,1.0644-0.84961,1.1816-0.43623,0.11719-0.78454,0.17578-1.0449,0.17578-1.3672,0-2.0508-1.1393-2.0508-3.418-0.00003-2.0833,0.44919-7.181,1.3476-15.293,0.0651-0.65103,0.0976-1.0547,0.0977-1.2109-0.00003-0.10415,0.0781-0.54035,0.23438-1.3086,0.11715-0.65102,0.17575-1.1979,0.17578-1.6406-0.00003-0.42967-0.0326-0.71612-0.0977-0.85938z"/>
   <path id="path3043" d="m269,612.91c-1.7839,0-3.2552-0.67708-4.4141-2.0312-1.1589-1.3542-1.7383-3.0273-1.7383-5.0195,0-3.3594,1.1296-6.6699,3.3887-9.9316s4.9642-4.8926,8.1152-4.8926c2.0833,0.00002,3.7728,0.8008,5.0684,2.4023,1.2956,1.6016,1.9433,3.5091,1.9434,5.7227-0.00002,3.3854-1.3379,6.5234-4.0137,9.4141-2.6758,2.8906-5.459,4.3359-8.3496,4.3359zm-2.7148-7.5586c-0.00001,1.3151,0.27669,2.3893,0.83008,3.2226,0.55338,0.83334,1.2858,1.25,2.1973,1.25,1.9401,0.00001,3.8867-1.0644,5.8398-3.1934,1.9531-2.1289,2.9297-4.4954,2.9297-7.0996-0.00001-1.6015-0.37436-2.9004-1.123-3.8965-0.74872-0.99608-1.7546-1.4941-3.0176-1.4941-2.0964,0.00002-3.8965,1.2858-5.4004,3.8574s-2.2559,5.0228-2.2559,7.3535z"/>
   <path id="path3045" d="m289.52,600.82c1.6667-3.0338,3.6588-5.4915,5.9766-7.373,2.3177-1.8815,4.4075-2.8222,6.2695-2.8223,1.0286,0.00003,1.901,0.47529,2.6172,1.4258,0.71612,0.95054,1.0742,2.1094,1.0742,3.4766-0.00003,4.0495-1.5267,7.8483-4.5801,11.396-3.0534,3.5482-6.2793,5.3223-9.6777,5.3223-0.92448,0-1.7741-0.25065-2.5488-0.75196-0.77475-0.5013-1.2077-1.1296-1.2988-1.8848-0.0521-0.61198-0.22787-1.0677-0.52735-1.3672-0.55989-0.55989-0.83984-1.1588-0.83984-1.7969,0-1.1849,0.32552-3.7174,0.97656-7.5977l2.0117-11.68c0.6901-3.9192,1.1947-6.3411,1.5137-7.2656,0.31901-0.92445,0.67382-1.5429,1.0645-1.8555,0.39061-0.31247,0.87238-0.46872,1.4453-0.46875,0.91145,0.00003,1.3672,0.78779,1.3672,2.3633-0.00001,1.4974-0.50132,3.5938-1.5039,6.2891-0.96355,2.5912-2.0768,7.4544-3.3398,14.59zm-0.46875,6.5039c0.67707,1.263,1.4974,1.8945,2.4609,1.8945,1.4844,0.00001,3.0534-0.61523,4.707-1.8457s3.0827-2.9622,4.2871-5.1953,1.8066-4.1178,1.8066-5.6543c-0.00002-0.69009-0.12372-1.2825-0.3711-1.7773-0.24741-0.49478-0.55991-0.74217-0.9375-0.74219-1.8099,0.00002-4.0202,1.4811-6.6309,4.4434-2.6107,2.9622-4.3848,5.9212-5.3223,8.877z"/>
   <path id="path3047" d="m315.52,585.78c-0.27345,0.00003-0.48178-0.29294-0.625-0.8789-0.0521-0.18227-0.12371-0.38409-0.21484-0.60547-0.35157-0.84633-0.52735-1.582-0.52735-2.207,0-0.52081,0.30924-1.0514,0.92774-1.5918,0.61848-0.54033,1.3053-0.81051,2.0605-0.81055,0.3776,0.00004,0.80077,0.14652,1.2695,0.43946,0.46873,0.293,0.70311,0.5762,0.70312,0.84961-0.00001,0.42971-0.15952,1.1589-0.47852,2.1875-0.31902,1.0287-0.82683,1.722-1.5234,2.0801-0.69663,0.3581-1.2272,0.53714-1.5918,0.53711zm-2.5586,21.816c-0.00001,0.98959,0.13671,2.1029,0.41015,3.3398,0.0521,0.23438,0.0781,0.42969,0.0781,0.58594-0.00001,0.23438-0.21485,0.53711-0.64453,0.9082-0.4297,0.3711-0.88543,0.55664-1.3672,0.55665-1.263-0.00001-1.8945-1.1589-1.8945-3.4766,0-2.3958,0.49479-6.1849,1.4844-11.367,0.33854-1.8099,0.50781-2.9232,0.50782-3.3398-0.00001-0.82029,0.14973-1.5202,0.44921-2.0996s0.72265-0.86912,1.2695-0.86914c0.66405,0.00002,1.1881,0.15953,1.5723,0.47852,0.38411,0.31903,0.57616,0.67384,0.57617,1.0644-0.00001,0.39064-0.0911,0.90497-0.27343,1.543-0.97657,3.4375-1.582,5.8984-1.8164,7.3828-0.23438,1.4844-0.35157,3.2487-0.35156,5.293z"/>
   <path id="path3049" d="m327.63,578.87c0.93749,0.00003,1.4062,0.59899,1.4062,1.7969-0.00002,1.0677-0.56642,3.6068-1.6992,7.6172-0.71616,2.5261-1.2695,5.3125-1.6602,8.3594-0.39063,3.0469-0.58594,5.4362-0.58594,7.168,0,2.1484,0.13671,4.2839,0.41016,6.4062,0.0521,0.40365,0.0781,0.69661,0.0781,0.8789,0,0.65105-0.22136,1.2109-0.66406,1.6797-0.44271,0.46875-0.91146,0.70313-1.4062,0.70313-0.69011,0-1.1686-0.42969-1.4356-1.2891-0.26693-0.85937-0.40039-2.2461-0.40039-4.1602,0-4.362,0.52409-9.7656,1.5723-16.211,1.0482-6.4453,1.8815-10.215,2.5-11.309,0.61848-1.0937,1.2467-1.6406,1.8848-1.6406z"/>
   <path id="path3051" d="m349,605.31c-0.00002,1.3281-1.1752,2.9297-3.5254,4.8047-2.3503,1.875-4.7754,2.8125-7.2754,2.8125-2.0964,0-3.7142-0.61849-4.8535-1.8555s-1.709-2.9622-1.709-5.1758c0-3.724,1.2565-7.2656,3.7695-10.625s5.2604-5.039,8.2422-5.0391c0.97655,0.00002,1.7741,0.31903,2.3926,0.95703,0.61847,0.63804,0.92772,1.4063,0.92773,2.3047-0.00001,2.0052-0.98309,3.9258-2.9492,5.7617-1.9662,1.8359-4.5964,3.6393-7.8906,5.4102-0.67709,0.35157-1.0156,0.8073-1.0156,1.3672,0,1.0807,0.3125,1.9466,0.9375,2.5977,0.625,0.65104,1.5495,0.97656,2.7734,0.97656,2.7995,0,5.6575-1.5495,8.5742-4.6484,0.42967-0.42968,0.75519-0.64452,0.97656-0.64453,0.41665,0.00001,0.62498,0.33204,0.625,0.99609zm-13.574-3.0469c5.5208-3.2812,8.2812-5.918,8.2812-7.9102-0.00001-0.78123-0.35157-1.1718-1.0547-1.1719-1.1979,0.00002-2.5488,0.87892-4.0527,2.6367s-2.5618,3.9063-3.1738,6.4453z"/>
  </g>
 </g>
</svg>
