<?xml version="1.0" encoding="UTF-8" standalone="no"?>
<!-- Created with Inkscape (http://www.inkscape.org/) -->
<svg id="svg3030" xmlns:rdf="http://www.w3.org/1999/02/22-rdf-syntax-ns#" xmlns="http://www.w3.org/2000/svg" height="97" width="182" version="1.1" xmlns:cc="http://creativecommons.org/ns#" xmlns:xlink="http://www.w3.org/1999/xlink" xmlns:dc="http://purl.org/dc/elements/1.1/">
 <defs id="defs3032"></defs>
 <metadata id="metadata3035">
  <rdf:RDF>
   <cc:Work rdf:about="">
    <dc:format>image/svg+xml</dc:format>
    <dc:type rdf:resource="http://purl.org/dc/dcmitype/StillImage"/>
    <dc:title/>
   </cc:Work>
  </rdf:RDF>
 </metadata>
 <g id="layer1" font-size="40px" transform="translate(0,-955.36218)" font-style="normal" font-weight="normal">
  <g id="text3038" stroke-linejoin="round" style="letter-spacing:0px;word-spacing:0px;" font-family="Segoe Print" line-height="125%" stroke="#000" stroke-linecap="round" stroke-miterlimit="4" font-stretch="normal" font-variant="normal" stroke-width="0.5" fill="#000">
   <path id="path5408" d="m19.352,961.71c0.11717,0.0912,0.17576,0.41018,0.17578,0.95703-0.000019,0.55992-0.05861,0.9831-0.17578,1.2695l0.25391,0.82031c0.42967,1.5365,0.85284,2.7995,1.2695,3.7891,0.52081,1.3282,1.0351,2.7539,1.543,4.2774,1.1588,3.5026,2.3665,6.5007,3.623,8.9941,1.2565,2.4935,2.4056,4.248,3.4473,5.2637,0.65101,0.63802,1.0579,1.0775,1.2207,1.3184,0.16273,0.24088,0.24411,0.52409,0.24414,0.84961-0.000031,0.57291-0.19209,1.0579-0.57617,1.4551-0.38414,0.39713-0.84313,0.5957-1.377,0.5957-1.6667,0-3.6849-2.6237-6.0547-7.8711-0.95054-2.0703-1.5235-3.1055-1.7188-3.1055-0.62502,0.00001-1.9694,0.18881-4.0332,0.5664-2.0638,0.37762-3.9486,0.82032-5.6543,1.3281-0.97657,0.29948-1.5951,0.44922-1.8555,0.44922-0.32553,0-0.66407-0.16276-1.0156-0.48828-0.065112-0.0521-0.14324-0.0781-0.23438-0.0781-0.28647,0.00001-0.90496,0.84636-1.8555,2.5391-1.5625,2.7995-2.5488,4.4694-2.959,5.0098-0.41016,0.54036-0.86263,0.81054-1.3574,0.81055-0.35156-0.00001-0.77474-0.20508-1.2695-0.61524-0.4957-0.41-0.7431-0.83-0.7431-1.26,2E-7-0.41667,0.23437-0.97982,0.70312-1.6895,0.46875-0.70963,1.4258-2.1387,2.8711-4.2871,2.5781-3.8151,4.7526-7.3958,6.5234-10.742,2.7995-5.3255,4.5768-8.4668,5.332-9.4238,0.75519-0.95701,1.3346-1.4355,1.7383-1.4356,0.85936,0.00003,1.5039,0.2344,1.9336,0.70313zm1.1914,15.527c-0.45575-1.0416-1.1263-2.9492-2.0117-5.7227-0.96356-2.9557-1.5755-4.7526-1.8359-5.3906-0.71616,1.5104-1.8229,3.6524-3.3203,6.4258l-3.5352,6.6992c0.27343-0.20832,0.99608-0.3776,2.168-0.50781,0.89842-0.0911,1.6797-0.20833,2.3438-0.35157,3.5547-0.71613,5.6185-1.1002,6.1914-1.1523z"/>
   <path id="path5410" d="m47.438,974.64c-0.6771,0.00002-1.416,0.44273-2.2168,1.3281-0.80079,0.88543-2.0215,2.8711-3.6621,5.957-2.1615,4.1406-3.5579,6.4974-4.1895,7.0703-0.63152,0.57292-1.1556,0.85938-1.5723,0.85938-1.5365,0-2.3047-0.74219-2.3047-2.2266-0.000001-0.62499,0.10416-1.5104,0.3125-2.6562,0.71614-3.9323,1.0742-8.0794,1.0742-12.441-0.000003-0.49478,0.21158-1.0449,0.63477-1.6504,0.42317-0.60545,0.82356-0.90819,1.2012-0.90821,0.67708,0.00002,1.1588,0.20836,1.4453,0.625,0.28645,0.41669,0.42968,1.2565,0.42969,2.5195-0.000007,1.3151-0.39063,4.0234-1.1719,8.125-0.26042,1.3542-0.39063,2.2135-0.39062,2.5781-0.000006,0.20834,0.05208,0.31251,0.15625,0.3125,0.19531,0.00001,1.1003-1.556,2.7148-4.668,1.6276-3.164,3.0534-5.3906,4.2773-6.6797,1.2239-1.289,2.5716-1.9336,4.043-1.9336,1.1719,0.00002,2.1256,0.53387,2.8613,1.6016,0.73566,1.0677,1.2728,3.0143,1.6113,5.8398,0.36456,3.2162,0.69334,5.2181,0.98633,6.0059,0.29295,0.78776,0.75844,1.1816,1.3965,1.1816,0.40362,0,0.91143-0.14323,1.5234-0.42969,0.10414-0.0521,0.18227-0.0781,0.23438-0.0781,0.55987,0.00001,0.83982,0.32553,0.83984,0.97657-0.000026,0.57292-0.38414,1.1816-1.1523,1.8262-0.76825,0.64453-1.6927,0.9668-2.7734,0.9668-1.1068,0-1.9629-0.43946-2.5684-1.3184-0.60549-0.87891-1.084-3.2259-1.4355-7.041-0.3646-3.8281-1.1328-5.7422-2.3047-5.7422z"/>
   <path id="path5412" d="m66.988,963.51c-0.27345,0.00003-0.48178-0.29294-0.625-0.87891-0.05209-0.18226-0.12371-0.38408-0.21484-0.60546-0.35157-0.84633-0.52735-1.582-0.52734-2.207-0.000008-0.5208,0.30924-1.0514,0.92773-1.5918,0.61848-0.54034,1.3053-0.81052,2.0605-0.81055,0.37759,0.00003,0.80077,0.14652,1.2695,0.43945,0.46874,0.293,0.70311,0.57621,0.70312,0.84961-0.000012,0.42972-0.15952,1.1589-0.47852,2.1875-0.31902,1.0287-0.82683,1.722-1.5234,2.0801-0.69662,0.3581-1.2272,0.53714-1.5918,0.53711zm-2.5586,21.816c-0.000006,0.98958,0.13671,2.1029,0.41016,3.3398,0.05208,0.23438,0.07812,0.42969,0.07813,0.58594-0.000007,0.23437-0.21485,0.53711-0.64453,0.9082-0.42969,0.37109-0.88542,0.55664-1.3672,0.55664-1.263,0-1.8945-1.1588-1.8945-3.4766-0.000003-2.3958,0.49479-6.1849,1.4844-11.367,0.33854-1.8099,0.50781-2.9232,0.50781-3.3398-0.000005-0.8203,0.14974-1.5202,0.44922-2.0996,0.29947-0.57941,0.72265-0.86912,1.2695-0.86914,0.66406,0.00002,1.1881,0.15952,1.5723,0.47851,0.38411,0.31903,0.57616,0.67385,0.57617,1.0645-0.000009,0.39064-0.09116,0.90496-0.27344,1.543-0.97657,3.4375-1.582,5.8984-1.8164,7.3828-0.23438,1.4844-0.35157,3.2487-0.35156,5.293z"/>
   <path id="path5414" d="m87.008,974.21c-1.211,0.026-3.8021,3.6133-7.7734,10.762-1.3412,2.4089-2.1224,3.7207-2.3438,3.9356-0.22136,0.21485-0.62826,0.4069-1.2207,0.57617-0.59245,0.16927-1.084,0.25391-1.4746,0.25391-0.8724,0-1.3086-1.6992-1.3086-5.0977-0.000003-1.914,0.41015-5.3776,1.2305-10.391,0.33854-2.0312,0.50781-3.4831,0.50781-4.3555-0.000005-0.85936,0.38411-1.289,1.1523-1.2891,1.4453,0.00002,2.168,1.0417,2.168,3.125-0.000008,0.97658-0.24089,2.8906-0.72266,5.7422-0.5599,3.2552-0.84636,5.2344-0.85938,5.9375,0.80728-0.78124,1.9922-2.4935,3.5547-5.1367,2.2135-3.6198,3.8444-5.9147,4.8926-6.8848,1.0482-0.97003,2.1321-1.4551,3.252-1.4551,0.84634,0.00002,1.5202,0.56643,2.0215,1.6992,0.50128,1.1328,0.80402,3.8346,0.9082,8.1055,0.02602,1.0677,0.12368,1.862,0.29297,2.3828,0.16925,0.52084,0.29295,0.78126,0.37109,0.78125,0.61196,0.00001,1.9401-2.0833,3.9844-6.25,1.0937-2.2005,2.1582-3.8737,3.1934-5.0195,1.0351-1.1458,2.1842-1.7187,3.4473-1.7188,1.0546,0.00002,1.8229,0.54364,2.3047,1.6309,0.48173,1.0873,0.82678,2.6986,1.0352,4.834,0.19528,2.1615,0.49801,4.1406,0.90821,5.9375,0.41012,1.7969,1.1621,2.9492,2.2559,3.457,0.74214,0.35156,1.1132,0.76172,1.1133,1.2305-0.00004,0.45574-0.31254,0.92449-0.9375,1.4062-0.62504,0.48178-1.198,0.72266-1.7188,0.72266-1.0417,0-1.9727-0.63802-2.793-1.9141-0.82035-1.276-1.4388-4.0364-1.8555-8.2812-0.18232-1.7057-0.35811-2.9167-0.52734-3.6328-0.16931-0.71614-0.43623-1.0742-0.80078-1.0742-0.54691,0.00001-1.1947,0.52084-1.9434,1.5625-0.74873,1.0417-1.9564,3.1576-3.623,6.3476-1.3021,2.487-2.2884,4.1439-2.959,4.9707-0.6706,0.82682-1.3184,1.2402-1.9434,1.2402-0.55992,0-1.0612-0.22461-1.5039-0.67383-0.44273-0.44921-0.72268-0.98958-0.83984-1.6211-0.11721-0.63151-0.2409-2.1842-0.37109-4.6582-0.19533-4.1146-0.5534-6.5104-1.0742-7.1875z"/>
   <path id="path5416" d="m126.52,982.55c-1.8229,2.4479-3.6263,4.2839-5.4102,5.5078-1.7839,1.224-3.418,1.8359-4.9024,1.8359-1.0026,0-1.8685-0.42318-2.5976-1.2695-0.72917-0.84635-1.0938-1.9336-1.0938-3.2617-0.00001-3.4245,1.5299-7.1126,4.5898-11.064,3.0599-3.9518,6.1002-5.9277,9.1211-5.9277,1.0937,0.00002,1.9075,0.62502,2.4414,1.875,0.16925,0.41669,0.43618,0.62502,0.80078,0.625,1.0416,0.00002,1.5625,0.40367,1.5625,1.2109-0.00002,0.40366-0.0651,0.95705-0.19531,1.6602-0.70315,3.8412-1.0547,6.5495-1.0547,8.125-0.00002,3.151,0.59894,5.0391,1.7969,5.6641,0.5729,0.3125,0.85936,0.69661,0.85938,1.1523-0.00002,0.40365-0.27997,0.81055-0.83984,1.2207-0.55992,0.41016-1.1003,0.61524-1.6211,0.61524-1.0026,0-1.8294-0.69011-2.4805-2.0703-0.65105-1.3802-0.97657-3.3464-0.97656-5.8984zm-1.1914-10.996c-1.7188,0.00001-3.7175,1.6113-5.9961,4.834s-3.418,5.8952-3.418,8.0176c0,1.4974,0.49479,2.2461,1.4844,2.2461,1.4323,0,3.418-1.4453,5.957-4.3359s3.8086-5.5469,3.8086-7.9688c-0.00001-1.862-0.61199-2.793-1.8359-2.793z"/>
   <path id="path5418" d="m143.71,956.59c0.93749,0.00003,1.4062,0.59899,1.4062,1.7969-0.00001,1.0677-0.56642,3.6068-1.6992,7.6172-0.71615,2.5261-1.2695,5.3125-1.6602,8.3594-0.39064,3.0469-0.58595,5.4362-0.58594,7.168-0.00001,2.1484,0.13671,4.2839,0.41015,6.4062,0.0521,0.40365,0.0781,0.69662,0.0781,0.87891-0.00001,0.65104-0.22136,1.2109-0.66406,1.6797-0.44272,0.46875-0.91147,0.70312-1.4062,0.70312-0.69011,0-1.1686-0.42969-1.4356-1.2891-0.26693-0.85937-0.40039-2.2461-0.40039-4.1602,0-4.362,0.52408-9.7656,1.5723-16.211,1.0482-6.4453,1.8815-10.215,2.5-11.309,0.61848-1.0937,1.2467-1.6406,1.8848-1.6406z"/>
   <path id="path5420" d="m158.18,985.19c-0.00001-0.84635-1.0417-1.8099-3.125-2.8906-2.6432-1.3542-4.4304-2.4381-5.3613-3.252-0.93099-0.81379-1.3965-1.722-1.3965-2.7246,0-2.5911,1.2988-4.7396,3.8965-6.4453,2.5976-1.7057,4.7168-2.5586,6.3574-2.5586,1.0547,0.00003,1.8196,0.18232,2.2949,0.54688,0.47525,0.3646,0.71288,0.99611,0.71289,1.8945-0.00001,0.40367-0.17254,0.74872-0.51757,1.0352-0.34507,0.28647-0.61525,0.4297-0.81055,0.42968-0.14324,0.00002-0.42319-0.0976-0.83985-0.29296-0.41667-0.18228-0.69011-0.27342-0.82031-0.27344-0.65105,0.00002-1.9727,0.47528-3.9648,1.4258-1.9922,0.95054-2.9883,2.0248-2.9883,3.2227-0.00001,0.72918,0.35155,1.39,1.0547,1.9824,0.70312,0.59246,1.9661,1.3184,3.7891,2.1777,1.4713,0.70314,2.6465,1.4551,3.5254,2.2559,0.87889,0.80079,1.3183,1.7415,1.3184,2.8223-0.00002,1.9922-1.3737,3.5514-4.1211,4.6777s-5.3711,1.6894-7.8711,1.6894c-2.1094,0-3.1641-0.71614-3.1641-2.1484,0-0.49479,0.23763-0.85938,0.71289-1.0938,0.47526-0.23438,0.95377-0.35156,1.4355-0.35157,0.19531,0.00001,0.56641,0.0651,1.1133,0.19532,0.53385,0.13021,0.88541,0.19531,1.0547,0.19531,1.4453,0,2.9948-0.24088,4.6484-0.72266,1.6536-0.48176,2.6758-1.0807,3.0664-1.7969z"/>
   <path id="path5422" d="m47.613,1016.6c-1.2891,1.4323-3.2813,3.9909-5.9766,7.6758-2.6953,3.6719-4.5899,6.0351-5.6836,7.0898-1.0938,1.0547-1.9922,1.5821-2.6953,1.582-0.53387,0.0001-1.0547-0.4003-1.5625-1.2011-0.50783-0.8008-1.1654-2.4186-1.9727-4.8535-1.6667-4.961-2.7149-7.819-3.1445-8.5743-0.15626,0.4428-0.33204,1.1654-0.52734,2.168-0.41668,2.1094-0.97006,4.681-1.6602,7.7149-1.3412,5.8203-2.1029,9.6744-2.2852,11.562-0.02605,0.2343-0.23764,0.4882-0.63477,0.7617-0.39714,0.2734-0.7194,0.4101-0.9668,0.4101-0.46875,0-0.9017-0.2343-1.2988-0.7031-0.39714-0.4687-0.5957-0.9245-0.5957-1.3672-0.000002-1.1458,0.3776-3.1445,1.1328-5.9961l1.6992-6.4062c1.0417-4.0365,1.6862-7.0052,1.9336-8.9063,0.24739-1.901,0.37109-3.3984,0.37109-4.4922-0.000008-1.1328,0.89192-1.6992,2.6758-1.6992,0.37759,0,0.77473,0.3288,1.1914,0.9863,0.41666,0.6576,0.69009,1.2338,0.82031,1.7286,0.16926,0.4948,0.37108,1.0482,0.60547,1.6601l2.6172,7.3242c1.0286,2.9948,1.6634,4.6843,1.9043,5.0684,0.24087,0.3841,0.43944,0.5762,0.5957,0.5762,0.66404-0.1433,3.0143-3.0013,7.0508-8.5743,4.4922-6.1848,7.0573-9.2773,7.6953-9.2773,0.5208,0,1.097,0.2051,1.7285,0.6152,0.63148,0.4102,0.94723,0.765,0.94727,1.0645-0.000035,0.1302-0.37764,2.9883-1.1328,8.5742-0.27347,2.0703-0.52738,4.5541-0.76172,7.4512-0.23441,2.8971-0.3516,4.528-0.35156,4.8926-0.000033,0.664,0.11716,1.4062,0.35156,2.2265,0.2083,0.7292,0.31247,1.3151,0.3125,1.7578-0.000034,0.3516-0.06514,0.8627-0.19531,1.5332-0.13024,0.6706-0.41344,1.0645-0.84961,1.1817-0.43623,0.1172-0.78454,0.1758-1.0449,0.1758-1.3672,0-2.0508-1.1394-2.0508-3.418-0.00003-2.0833,0.44919-7.181,1.3477-15.293,0.06507-0.651,0.09763-1.0546,0.09766-1.2109-0.000031-0.1042,0.07809-0.5404,0.23438-1.3086,0.11716-0.651,0.17575-1.1979,0.17578-1.6406-0.000031-0.4297-0.03258-0.7162-0.09766-0.8594z"/>
   <path id="path5424" d="m73.668,1033c-0.00002,1.3282-1.1751,2.9297-3.5254,4.8047s-4.7754,2.8125-7.2754,2.8125c-2.0964,0-3.7142-0.6185-4.8535-1.8554-1.1393-1.237-1.709-2.9623-1.709-5.1758-0.000001-3.724,1.2565-7.2656,3.7695-10.625s5.2604-5.0391,8.2422-5.0391c0.97655,0,1.7741,0.319,2.3926,0.957,0.61847,0.6381,0.92772,1.4063,0.92774,2.3047-0.000018,2.0053-0.98309,3.9258-2.9492,5.7618-1.9662,1.8359-4.5964,3.6393-7.8906,5.4101-0.67709,0.3516-1.0156,0.8073-1.0156,1.3672-0.000005,1.0807,0.31249,1.9466,0.9375,2.5977,0.62499,0.651,1.5495,0.9765,2.7734,0.9765,2.7995,0,5.6575-1.5495,8.5742-4.6484,0.42967-0.4297,0.75519-0.6445,0.97656-0.6446,0.41665,0.0001,0.62498,0.3321,0.625,0.9961zm-13.574-3.0468c5.5208-3.2813,8.2812-5.918,8.2812-7.9102-0.000014-0.7812-0.35158-1.1718-1.0547-1.1719-1.1979,0.0001-2.5488,0.879-4.0527,2.6368s-2.5619,3.9062-3.1738,6.4453z"/>
   <path id="path5426" d="m92.477,1024.2c-1.211,0.026-3.8021,3.6133-7.7734,10.762-1.3412,2.4089-2.1224,3.7207-2.3438,3.9356-0.22136,0.2148-0.62826,0.4069-1.2207,0.5762-0.59245,0.1692-1.084,0.2539-1.4746,0.2539-0.8724,0-1.3086-1.6993-1.3086-5.0977-0.000003-1.9141,0.41015-5.3776,1.2305-10.391,0.33854-2.0313,0.50781-3.4831,0.50781-4.3555-0.000005-0.8593,0.38411-1.289,1.1523-1.2891,1.4453,0.0001,2.168,1.0417,2.168,3.125-0.000008,0.9766-0.24089,2.8907-0.72266,5.7422-0.5599,3.2553-0.84636,5.2344-0.85938,5.9375,0.80728-0.7812,1.9922-2.4934,3.5547-5.1367,2.2135-3.6198,3.8444-5.9147,4.8926-6.8848,1.0482-0.97,2.1321-1.455,3.252-1.455,0.84634,0,1.5202,0.5664,2.0215,1.6992,0.50128,1.1328,0.80402,3.8346,0.9082,8.1055,0.02602,1.0677,0.12368,1.8619,0.29297,2.3828,0.16925,0.5208,0.29295,0.7812,0.37109,0.7812,0.61196,0,1.9401-2.0833,3.9844-6.25,1.0937-2.2005,2.1582-3.8737,3.1934-5.0195,1.0351-1.1458,2.1842-1.7187,3.4473-1.7188,1.0546,0.0001,1.8229,0.5437,2.3047,1.6309,0.48173,1.0873,0.82678,2.6986,1.0352,4.834,0.19528,2.1615,0.49801,4.1406,0.90821,5.9375,0.41012,1.7969,1.1621,2.9492,2.2559,3.457,0.74214,0.3516,1.1132,0.7617,1.1133,1.2305-0.00004,0.4557-0.31254,0.9245-0.9375,1.4062-0.62504,0.4818-1.198,0.7227-1.7188,0.7227-1.0417,0-1.9727-0.638-2.793-1.9141-0.82035-1.276-1.4388-4.0364-1.8555-8.2812-0.18232-1.7057-0.35811-2.9167-0.52734-3.6328-0.16931-0.7162-0.43623-1.0742-0.80078-1.0743-0.54691,0.0001-1.1947,0.5209-1.9434,1.5625-0.74873,1.0417-1.9564,3.1576-3.623,6.3477-1.3021,2.487-2.2884,4.1439-2.959,4.9707s-1.3184,1.2402-1.9434,1.2402c-0.55992,0-1.0612-0.2246-1.5039-0.6738-0.44273-0.4492-0.72268-0.9896-0.83984-1.6211-0.11721-0.6315-0.2409-2.1842-0.37109-4.6582-0.19533-4.1146-0.5534-6.5104-1.0742-7.1875z"/>
   <path id="path5428" d="m124.53,1040.6c-1.7839,0-3.2552-0.6771-4.4141-2.0313-1.1589-1.3541-1.7383-3.0273-1.7383-5.0195,0-3.3594,1.1296-6.6699,3.3887-9.9316s4.9642-4.8926,8.1152-4.8926c2.0833,0,3.7728,0.8008,5.0684,2.4023,1.2956,1.6016,1.9433,3.5092,1.9434,5.7227-0.00002,3.3854-1.3379,6.5234-4.0137,9.4141-2.6758,2.8906-5.459,4.3359-8.3496,4.3359zm-2.7148-7.5586c-0.00001,1.3151,0.27669,2.3893,0.83008,3.2227,0.55338,0.8333,1.2858,1.25,2.1973,1.25,1.9401,0,3.8867-1.0645,5.8398-3.1934s2.9297-4.4954,2.9297-7.0996c-0.00001-1.6016-0.37436-2.9004-1.123-3.8965-0.74872-0.9961-1.7546-1.4941-3.0176-1.4941-2.0964,0-3.8965,1.2858-5.4004,3.8574s-2.2559,5.0228-2.2559,7.3535z"/>
   <path id="path5430" d="m145.43,1031.9c0.1302-0.2343,0.28645-0.5599,0.46875-0.9765,0.88541-2.0313,1.6992-3.6231,2.4414-4.7754,0.74217-1.1524,1.5592-2.2559,2.4512-3.3106,0.89191-1.0546,1.7057-1.8554,2.4414-2.4023,0.73566-0.5469,1.403-0.9277,2.002-1.1426,0.59894-0.2148,1.1784-0.3222,1.7383-0.3223,1.1328,0.0001,2.0573,0.3419,2.7734,1.0254,0.71612,0.6836,1.0742,1.4812,1.0742,2.3926-0.00003,0.4037-0.12698,0.7683-0.38086,1.0938-0.25393,0.3255-0.6413,0.4883-1.1621,0.4882-0.5469,0.0001-1.0482-0.2408-1.5039-0.7226-0.46877-0.4818-0.95705-0.7227-1.4648-0.7227-1.3542,0-3.2292,1.6407-5.625,4.9219-2.3958,3.2813-3.8542,6.8945-4.375,10.84-0.13022,1.0157-0.37761,1.6862-0.74219,2.0118-0.36459,0.3255-0.87891,0.4882-1.543,0.4882-0.63802,0-1.1003-0.4752-1.3867-1.4257-0.28646-0.9506-0.42969-2.5521-0.42969-4.8047,0-0.612,0.0325-1.9597,0.0977-4.043,0.0781-2.4609,0.23437-4.4466,0.46875-5.957,0.0391-0.2474,0.10416-0.8268,0.19531-1.7383,0.0911-1.0026,0.20508-1.6992,0.3418-2.0898,0.13671-0.3907,0.41666-0.7552,0.83984-1.0938,0.42318-0.3385,0.88216-0.5078,1.377-0.5078,0.48176,0,0.84309,0.153,1.084,0.459,0.24088,0.306,0.36132,0.6348,0.36133,0.9863-0.00001,0.5078-0.13022,1.224-0.39063,2.1484-0.29948,1.0287-0.47526,1.7383-0.52734,2.1289-0.0391,0.4428-0.11068,0.905-0.21484,1.3868-0.13022,0.5599-0.26043,2.0312-0.39063,4.414l-0.0195,0.7227z"/>
   <path id="path5432" d="m176.3,1032.8c-2.3958,2.0833-4.502,3.597-6.3184,4.541s-3.2064,1.416-4.1699,1.416c-1.2891,0-2.2754-0.5371-2.959-1.6113-0.68359-1.0742-1.0254-2.3275-1.0254-3.7598,0-2.0052,0.4069-4.4824,1.2207-7.4316s1.4193-4.7005,1.8164-5.2539c0.39713-0.5534,1.0319-0.8301,1.9043-0.8301,0.36457,0,0.66405,0.2149,0.89843,0.6445,0.23437,0.4298,0.35156,0.918,0.35157,1.4649-0.00001,0.3255-0.14975,0.7487-0.44922,1.2695-0.70313,1.224-1.071,1.9011-1.1035,2.0313-0.0326,0.1302-0.28321,0.9147-0.75195,2.3535-0.46876,1.4388-0.70313,2.7897-0.70313,4.0527,0,0.4427,0.10742,1.1328,0.32227,2.0703,0.21484,0.9375,0.6608,1.4063,1.3379,1.4063,0.71614,0,1.5983-0.2181,2.6465-0.6543s2.2298-1.1491,3.5449-2.1387,2.2005-1.7903,2.6562-2.4023c0.45571-0.612,0.77798-1.3086,0.96679-2.0899,0.18879-0.7812,0.32225-2.4739,0.40039-5.0781,0.0781-2.6041,0.70962-3.9062,1.8945-3.9062,0.7031,0,1.1588,0.1855,1.3672,0.5566,0.20832,0.3711,0.31248,1.0775,0.3125,2.1191-0.00002,0.8594-0.0586,1.9336-0.17578,3.2227-0.14325,1.6276-0.23439,2.7865-0.27344,3.4766-0.18231,3.5807-0.6478,7.1777-1.3965,10.791-0.74872,3.6132-1.8392,6.6341-3.2715,9.0625-1.4323,2.4283-3.405,3.6425-5.918,3.6425-2.5521,0-4.821-0.6673-6.8066-2.0019-1.9857-1.3347-2.9785-2.4642-2.9785-3.3887,0-0.4297,0.10091-0.8528,0.30274-1.2695,0.20182-0.4167,0.45898-0.625,0.77148-0.625,0.15625,0,0.32552,0.1237,0.50781,0.3711,1.7057,2.6172,4.388,3.9258,8.0469,3.9258,1.888,0,3.4733-1.6569,4.7559-4.9707,1.2825-3.3138,1.9889-6.4226,2.1191-9.3262,0.026-0.5599,0.0781-1.1198,0.15625-1.6797z"/>
  </g>
  <text id="text3810" style="letter-spacing:0px;word-spacing:0px;" xml:space="preserve" y="168.79076" x="242.85715" font-family="Sans" line-height="125%" fill="#000000"><tspan id="tspan3812" x="242.85715" y="168.79076"/></text>
  <flowRoot id="flowRoot5286" style="letter-spacing:0px;word-spacing:0px;" xml:space="preserve" line-height="125%" font-family="Sans" fill="#000000"><flowRegion id="flowRegion5288"><rect id="rect5290" y="-29.781" width="276.43" x="-10.714" height="215"/></flowRegion><flowPara id="flowPara5292"/></flowRoot>
  <flowRoot id="flowRoot5294" style="letter-spacing:0px;word-spacing:0px;" xml:space="preserve" line-height="125%" font-family="Sans" fill="#000000"><flowRegion id="flowRegion5296"><rect id="rect5298" y="-55.775" width="322.24" x="-44.447" height="175.77"/></flowRegion><flowPara id="flowPara5300"/></flowRoot>
  <g id="text3038-6" style="letter-spacing:0px;word-spacing:0px;" font-family="Segoe Print" stroke-dashoffset="0" stroke="#000" font-stretch="normal" stroke-miterlimit="4" line-height="125%" font-variant="normal" stroke-width="0" fill="#ffd42a">
   <path id="path5381" d="m22.407,963.35c0.11717,0.0912,0.17576,0.41019,0.17578,0.95703-0.000019,0.55993-0.05861,0.9831-0.17578,1.2695l0.25391,0.82031c0.42967,1.5365,0.85284,2.7995,1.2695,3.7891,0.52081,1.3282,1.0351,2.7539,1.543,4.2773,1.1588,3.5026,2.3665,6.5007,3.623,8.9942s2.4056,4.248,3.4473,5.2637c0.65101,0.63802,1.0579,1.0775,1.2207,1.3184,0.16273,0.24088,0.24411,0.52409,0.24414,0.84961-0.00003,0.57291-0.19209,1.0579-0.57617,1.4551-0.38414,0.39714-0.84313,0.59571-1.377,0.59571-1.6667,0-3.6849-2.6237-6.0547-7.8711-0.95054-2.0703-1.5235-3.1055-1.7188-3.1055-0.62502,0.00001-1.9694,0.18882-4.0332,0.56641-2.0638,0.37761-3.9486,0.82032-5.6543,1.3281-0.97657,0.29948-1.5951,0.44922-1.8555,0.44921-0.32553,0.00001-0.66407-0.16275-1.0156-0.48828-0.06511-0.0521-0.14324-0.0781-0.23438-0.0781-0.28647,0.00001-0.90496,0.84636-1.8555,2.5391-1.5625,2.7995-2.5488,4.4694-2.959,5.0098-0.41016,0.54036-0.86263,0.81054-1.3574,0.81054-0.35156,0-0.77474-0.20508-1.2695-0.61523-0.49479-0.41016-0.74219-0.83008-0.74219-1.2598,2E-7-0.41666,0.23438-0.97981,0.70312-1.6894,0.46875-0.70963,1.4258-2.1387,2.8711-4.2871,2.5781-3.8151,4.7526-7.3958,6.5234-10.742,2.7995-5.3255,4.5768-8.4668,5.332-9.4238,0.75519-0.95701,1.3346-1.4355,1.7383-1.4356,0.85936,0.00003,1.5039,0.2344,1.9336,0.70312zm1.1914,15.527c-0.45575-1.0417-1.1263-2.9492-2.0117-5.7227-0.96356-2.9557-1.5755-4.7526-1.8359-5.3906-0.71616,1.5104-1.8229,3.6524-3.3203,6.4258l-3.5352,6.6992c0.27343-0.20833,0.99608-0.3776,2.168-0.50782,0.89842-0.0911,1.6797-0.20832,2.3438-0.35156,3.5547-0.71613,5.6185-1.1002,6.1914-1.1523z"/>
   <path id="path5383" d="m50.493,976.28c-0.6771,0.00002-1.416,0.44272-2.2168,1.3281-0.80079,0.88543-2.0215,2.8711-3.6621,5.957-2.1615,4.1406-3.5579,6.4974-4.1895,7.0703-0.63152,0.57292-1.1556,0.85937-1.5723,0.85937-1.5365,0-2.3047-0.74218-2.3047-2.2266-0.000002-0.625,0.10416-1.5104,0.3125-2.6562,0.71614-3.9323,1.0742-8.0794,1.0742-12.441-0.000004-0.49478,0.21158-1.0449,0.63476-1.6504,0.42317-0.60545,0.82356-0.90819,1.2012-0.90821,0.67708,0.00002,1.1588,0.20835,1.4453,0.625,0.28645,0.41669,0.42968,1.2565,0.42969,2.5195-0.000007,1.3151-0.39063,4.0234-1.1719,8.125-0.26042,1.3542-0.39063,2.2136-0.39062,2.5781-0.000005,0.20834,0.05208,0.3125,0.15625,0.3125,0.19531,0,1.1003-1.556,2.7148-4.668,1.6276-3.164,3.0534-5.3906,4.2773-6.6797,1.2239-1.289,2.5716-1.9336,4.043-1.9336,1.1719,0.00002,2.1256,0.53387,2.8613,1.6016,0.73566,1.0677,1.2728,3.0143,1.6113,5.8398,0.36456,3.2162,0.69334,5.2181,0.98633,6.0059,0.29295,0.78777,0.75844,1.1816,1.3965,1.1816,0.40362,0.00001,0.91143-0.14322,1.5234-0.42968,0.10414-0.0521,0.18227-0.0781,0.23438-0.0781,0.55987,0.00001,0.83982,0.32553,0.83984,0.97656-0.000026,0.57292-0.38414,1.1816-1.1523,1.8262-0.76825,0.64453-1.6927,0.96679-2.7734,0.96679-1.1068,0-1.9629-0.43945-2.5684-1.3184-0.60549-0.8789-1.084-3.2259-1.4355-7.041-0.3646-3.8281-1.1328-5.7422-2.3047-5.7422z"/>
   <path id="path5385" d="m70.044,965.15c-0.27345,0.00002-0.48178-0.29294-0.625-0.87891-0.05209-0.18226-0.12371-0.38409-0.21484-0.60547-0.35157-0.84632-0.52735-1.582-0.52734-2.207-0.000007-0.5208,0.30924-1.0514,0.92773-1.5918,0.61848-0.54034,1.3053-0.81052,2.0605-0.81055,0.37759,0.00003,0.80077,0.14651,1.2695,0.43945,0.46874,0.293,0.70311,0.5762,0.70312,0.84961-0.000013,0.42972-0.15952,1.1589-0.47852,2.1875-0.31902,1.0287-0.82683,1.722-1.5234,2.0801-0.69662,0.3581-1.2272,0.53713-1.5918,0.53711zm-2.5586,21.816c-0.000007,0.98959,0.13671,2.1029,0.41016,3.3398,0.05208,0.23437,0.07812,0.42969,0.07813,0.58594-0.000007,0.23437-0.21485,0.5371-0.64453,0.9082-0.42969,0.37109-0.88542,0.55664-1.3672,0.55664-1.263,0-1.8945-1.1588-1.8945-3.4766-0.000003-2.3958,0.49479-6.1849,1.4844-11.367,0.33854-1.8099,0.50781-2.9232,0.50781-3.3398-0.000005-0.8203,0.14973-1.5202,0.44922-2.0996,0.29947-0.57941,0.72265-0.86912,1.2695-0.86914,0.66406,0.00002,1.1881,0.15952,1.5723,0.47851,0.38411,0.31903,0.57616,0.67385,0.57617,1.0644-0.000009,0.39065-0.09115,0.90497-0.27344,1.543-0.97657,3.4375-1.582,5.8984-1.8164,7.3828-0.23438,1.4844-0.35157,3.2487-0.35156,5.293z"/>
   <path id="path5387" d="m90.064,975.85c-1.211,0.0261-3.8021,3.6133-7.7734,10.762-1.3412,2.4089-2.1224,3.7207-2.3438,3.9356-0.22136,0.21484-0.62826,0.4069-1.2207,0.57617-0.59245,0.16927-1.084,0.25391-1.4746,0.25391-0.8724,0-1.3086-1.6992-1.3086-5.0977-0.000003-1.914,0.41015-5.3776,1.2305-10.391,0.33854-2.0312,0.50781-3.4831,0.50781-4.3555-0.000005-0.85936,0.38411-1.289,1.1523-1.2891,1.4453,0.00003,2.168,1.0417,2.168,3.125-0.000008,0.97658-0.24089,2.8906-0.72266,5.7422-0.5599,3.2552-0.84636,5.2344-0.85938,5.9375,0.80728-0.78124,1.9922-2.4935,3.5547-5.1367,2.2135-3.6198,3.8444-5.9147,4.8926-6.8848,1.0482-0.97004,2.1321-1.4551,3.252-1.4551,0.84634,0.00002,1.5202,0.56642,2.0215,1.6992,0.50128,1.1328,0.80402,3.8346,0.9082,8.1055,0.02602,1.0677,0.12368,1.862,0.29297,2.3828,0.16925,0.52084,0.29295,0.78126,0.37109,0.78125,0.61196,0.00001,1.9401-2.0833,3.9844-6.25,1.0937-2.2005,2.1582-3.8737,3.1934-5.0195,1.0351-1.1458,2.1842-1.7187,3.4473-1.7188,1.0546,0.00002,1.8229,0.54364,2.3047,1.6309,0.48173,1.0872,0.82678,2.6986,1.0352,4.834,0.19528,2.1615,0.49801,4.1406,0.90821,5.9375,0.41011,1.7969,1.1621,2.9492,2.2558,3.457,0.74215,0.35157,1.1132,0.76173,1.1133,1.2305-0.00004,0.45573-0.31254,0.92448-0.9375,1.4062-0.62504,0.48177-1.198,0.72266-1.7188,0.72266-1.0417,0-1.9727-0.63802-2.793-1.9141-0.82035-1.276-1.4388-4.0365-1.8555-8.2812-0.18233-1.7057-0.35811-2.9167-0.52735-3.6328-0.1693-0.71613-0.43623-1.0742-0.80078-1.0742-0.5469,0.00002-1.1947,0.52085-1.9434,1.5625-0.74872,1.0417-1.9564,3.1576-3.623,6.3477-1.3021,2.487-2.2884,4.1439-2.959,4.9707-0.6706,0.82683-1.3184,1.2402-1.9434,1.2402-0.55992,0-1.0612-0.22461-1.5039-0.67383-0.44273-0.44922-0.72268-0.98958-0.83984-1.6211-0.11721-0.63151-0.2409-2.1842-0.37109-4.6582-0.19533-4.1146-0.5534-6.5104-1.0742-7.1875z"/>
   <path id="path5389" d="m129.58,984.19c-1.8229,2.4479-3.6263,4.2838-5.4102,5.5078s-3.418,1.8359-4.9023,1.8359c-1.0026,0-1.8685-0.42318-2.5977-1.2695-0.72917-0.84636-1.0938-1.9336-1.0938-3.2617,0-3.4245,1.53-7.1126,4.5898-11.064,3.0599-3.9518,6.1002-5.9277,9.1211-5.9277,1.0937,0.00002,1.9075,0.62502,2.4414,1.875,0.16925,0.41669,0.43618,0.62502,0.80078,0.625,1.0416,0.00002,1.5625,0.40366,1.5625,1.2109-0.00002,0.40366-0.0651,0.95704-0.19531,1.6602-0.70315,3.8412-1.0547,6.5495-1.0547,8.125-0.00002,3.151,0.59894,5.0391,1.7969,5.6641,0.5729,0.3125,0.85936,0.69661,0.85938,1.1523-0.00002,0.40365-0.27997,0.81055-0.83985,1.2207-0.55991,0.41016-1.1003,0.61524-1.6211,0.61524-1.0026,0-1.8294-0.69011-2.4805-2.0703-0.65106-1.3802-0.97658-3.3464-0.97656-5.8984zm-1.1914-10.996c-1.7188,0.00002-3.7175,1.6114-5.9961,4.834-2.2786,3.2227-3.418,5.8952-3.418,8.0176,0,1.4974,0.49479,2.2461,1.4844,2.2461,1.4323,0,3.418-1.4453,5.957-4.3359s3.8086-5.5469,3.8086-7.9688c-0.00002-1.862-0.61199-2.793-1.8359-2.793z"/>
   <path id="path5391" d="m146.76,958.24c0.93749,0.00003,1.4062,0.59899,1.4062,1.7969-0.00001,1.0677-0.56642,3.6068-1.6992,7.6172-0.71615,2.5261-1.2695,5.3125-1.6602,8.3594-0.39063,3.0469-0.58594,5.4362-0.58593,7.168-0.00001,2.1484,0.13671,4.2839,0.41015,6.4062,0.0521,0.40365,0.0781,0.69662,0.0781,0.87891-0.00001,0.65104-0.22136,1.2109-0.66406,1.6797-0.44272,0.46874-0.91147,0.70312-1.4062,0.70312-0.69011,0-1.1686-0.42969-1.4356-1.2891-0.26693-0.85938-0.4004-2.2461-0.40039-4.1602-0.00001-4.362,0.52408-9.7656,1.5723-16.211,1.0482-6.4453,1.8815-10.215,2.5-11.309,0.61849-1.0937,1.2467-1.6406,1.8848-1.6406z"/>
   <path id="path5393" d="m161.24,986.83c-0.00002-0.84635-1.0417-1.8099-3.125-2.8906-2.6432-1.3542-4.4304-2.4381-5.3613-3.252-0.93099-0.81379-1.3965-1.722-1.3965-2.7246,0-2.5911,1.2988-4.7396,3.8965-6.4453,2.5976-1.7057,4.7168-2.5586,6.3574-2.5586,1.0547,0.00002,1.8196,0.18232,2.2949,0.54688,0.47525,0.3646,0.71288,0.99611,0.71289,1.8945-0.00001,0.40366-0.17254,0.74872-0.51758,1.0352-0.34506,0.28648-0.61525,0.42971-0.81054,0.42969-0.14325,0.00002-0.42319-0.0976-0.83985-0.29297-0.41668-0.18227-0.69011-0.27342-0.82031-0.27343-0.65105,0.00001-1.9727,0.47527-3.9648,1.4258-1.9922,0.95053-2.9883,2.0248-2.9883,3.2226-0.00001,0.72918,0.35155,1.39,1.0547,1.9824,0.70312,0.59245,1.9661,1.3184,3.7891,2.1777,1.4713,0.70313,2.6465,1.4551,3.5254,2.2559,0.87889,0.80079,1.3183,1.7415,1.3184,2.8223-0.00002,1.9922-1.3737,3.5514-4.1211,4.6777s-5.3711,1.6894-7.8711,1.6894c-2.1094,0-3.1641-0.71614-3.1641-2.1484,0-0.49479,0.23763-0.85937,0.71289-1.0938,0.47526-0.23437,0.95377-0.35156,1.4355-0.35156,0.19531,0,0.56641,0.0651,1.1133,0.19531,0.53385,0.13021,0.88542,0.19532,1.0547,0.19532,1.4453,0,2.9948-0.24089,4.6484-0.72266s2.6758-1.0807,3.0664-1.7969z"/>
   <path id="path5395" d="m50.669,1018.3c-1.2891,1.4323-3.2813,3.9909-5.9766,7.6757-2.6953,3.6719-4.5899,6.0352-5.6836,7.0899-1.0938,1.0547-1.9922,1.582-2.6953,1.582-0.53387,0-1.0547-0.4004-1.5625-1.2012-0.50783-0.8007-1.1654-2.4186-1.9727-4.8535-1.6667-4.9609-2.7149-7.819-3.1445-8.5742-0.15626,0.4427-0.33204,1.1654-0.52734,2.168-0.41668,2.1094-0.97006,4.681-1.6602,7.7148-1.3412,5.8203-2.1029,9.6745-2.2852,11.562-0.02605,0.2344-0.23764,0.4883-0.63477,0.7617-0.39714,0.2735-0.7194,0.4102-0.9668,0.4102-0.46875,0-0.9017-0.2344-1.2988-0.7031-0.39714-0.4688-0.5957-0.9245-0.5957-1.3672-0.000002-1.1458,0.3776-3.1445,1.1328-5.9961l1.6992-6.4063c1.0417-4.0364,1.6862-7.0051,1.9336-8.9062,0.24739-1.901,0.37109-3.3984,0.37109-4.4922-0.000007-1.1328,0.89192-1.6992,2.6758-1.6992,0.37759,0,0.77473,0.3288,1.1914,0.9863,0.41666,0.6576,0.69009,1.2338,0.82031,1.7285,0.16926,0.4948,0.37108,1.0482,0.60547,1.6602l2.6172,7.3242c1.0286,2.9948,1.6634,4.6843,1.9043,5.0684,0.24087,0.3841,0.43944,0.5761,0.5957,0.5761,0.66404-0.1432,3.0143-3.0013,7.0508-8.5742,4.4922-6.1849,7.0573-9.2773,7.6953-9.2773,0.5208,0,1.097,0.2051,1.7285,0.6152,0.63148,0.4102,0.94723,0.765,0.94726,1.0645-0.000035,0.1302-0.37764,2.9883-1.1328,8.5742-0.27347,2.0703-0.52738,4.554-0.76172,7.4511-0.23441,2.8972-0.3516,4.5281-0.35156,4.8926-0.000033,0.6641,0.11715,1.4063,0.35156,2.2266,0.2083,0.7292,0.31247,1.3151,0.3125,1.7578-0.000033,0.3516-0.06514,0.8626-0.19531,1.5332-0.13024,0.6706-0.41344,1.0645-0.84961,1.1816-0.43623,0.1172-0.78454,0.1758-1.0449,0.1758-1.3672,0-2.0508-1.1393-2.0508-3.4179-0.000029-2.0834,0.44919-7.181,1.3477-15.293,0.06507-0.651,0.09763-1.0547,0.09766-1.2109-0.000031-0.1042,0.07809-0.5404,0.23438-1.3086,0.11716-0.6511,0.17575-1.1979,0.17578-1.6407-0.000031-0.4296-0.03258-0.7161-0.09766-0.8593z"/>
   <path id="path5397" d="m76.724,1034.7c-0.000019,1.3281-1.1751,2.9297-3.5254,4.8047s-4.7754,2.8125-7.2754,2.8125c-2.0964,0-3.7142-0.6185-4.8535-1.8555s-1.709-2.9622-1.709-5.1758c-0.000002-3.7239,1.2565-7.2656,3.7695-10.625,2.513-3.3593,5.2604-5.039,8.2422-5.039,0.97655,0,1.7741,0.319,2.3926,0.957,0.61847,0.6381,0.92772,1.4063,0.92773,2.3047-0.000017,2.0052-0.98309,3.9258-2.9492,5.7617-1.9662,1.836-4.5964,3.6394-7.8906,5.4102-0.67709,0.3515-1.0156,0.8073-1.0156,1.3672-0.000005,1.0807,0.3125,1.9466,0.9375,2.5976,0.62499,0.6511,1.5495,0.9766,2.7734,0.9766,2.7995,0,5.6575-1.5495,8.5742-4.6485,0.42967-0.4296,0.75519-0.6445,0.97656-0.6445,0.41665,0,0.62498,0.3321,0.625,0.9961zm-13.574-3.0469c5.5208-3.2812,8.2812-5.9179,8.2812-7.9101-0.000014-0.7813-0.35158-1.1719-1.0547-1.1719-1.1979,0-2.5488,0.8789-4.0527,2.6367s-2.5619,3.9063-3.1738,6.4453z"/>
   <path id="path5399" d="m95.532,1025.9c-1.211,0.026-3.8021,3.6133-7.7734,10.762-1.3412,2.4089-2.1224,3.7207-2.3438,3.9355-0.22136,0.2149-0.62826,0.407-1.2207,0.5762-0.59245,0.1693-1.084,0.2539-1.4746,0.2539-0.8724,0-1.3086-1.6992-1.3086-5.0976-0.000003-1.9141,0.41015-5.3776,1.2305-10.391,0.33854-2.0312,0.50781-3.483,0.50781-4.3554-0.000005-0.8594,0.38411-1.2891,1.1523-1.2891,1.4453,0,2.168,1.0417,2.168,3.125-0.000008,0.9766-0.24089,2.8907-0.72266,5.7422-0.5599,3.2552-0.84636,5.2344-0.85938,5.9375,0.80728-0.7812,1.9922-2.4935,3.5547-5.1367,2.2135-3.6198,3.8444-5.9147,4.8926-6.8848,1.0482-0.97,2.1321-1.455,3.252-1.4551,0.84634,0.0001,1.5202,0.5665,2.0215,1.6993,0.50128,1.1328,0.80402,3.8346,0.9082,8.1054,0.02602,1.0677,0.12368,1.862,0.29297,2.3828,0.16925,0.5209,0.29294,0.7813,0.3711,0.7813,0.61195,0,1.9401-2.0833,3.9844-6.25,1.0937-2.2005,2.1582-3.8737,3.1934-5.0195,1.0351-1.1459,2.1842-1.7188,3.4473-1.7188,1.0546,0,1.8229,0.5436,2.3047,1.6309,0.48173,1.0872,0.82678,2.6986,1.0352,4.834,0.19528,2.1614,0.49801,4.1406,0.90821,5.9375,0.41011,1.7968,1.1621,2.9492,2.2558,3.457,0.74215,0.3515,1.1132,0.7617,1.1133,1.2305-0.00004,0.4557-0.31254,0.9244-0.9375,1.4062-0.62504,0.4818-1.198,0.7227-1.7188,0.7227-1.0417,0-1.9727-0.6381-2.793-1.9141-0.82035-1.276-1.4388-4.0365-1.8555-8.2813-0.18233-1.7057-0.35811-2.9166-0.52735-3.6328-0.1693-0.7161-0.43623-1.0742-0.80078-1.0742-0.5469,0-1.1947,0.5209-1.9434,1.5625-0.74872,1.0417-1.9564,3.1576-3.623,6.3477-1.3021,2.487-2.2884,4.1439-2.959,4.9707-0.67059,0.8268-1.3184,1.2402-1.9434,1.2402-0.55992,0-1.0612-0.2246-1.5039-0.6738-0.44273-0.4492-0.72268-0.9896-0.83984-1.6211-0.11721-0.6315-0.2409-2.1843-0.37109-4.6582-0.19533-4.1146-0.5534-6.5104-1.0742-7.1875z"/>
   <path id="path5401" d="m127.58,1042.3c-1.7839,0-3.2552-0.6771-4.4141-2.0313-1.1589-1.3541-1.7383-3.0273-1.7383-5.0195,0-3.3594,1.1296-6.6699,3.3887-9.9317,2.2591-3.2617,4.9642-4.8925,8.1152-4.8925,2.0833,0,3.7728,0.8008,5.0684,2.4023,1.2956,1.6016,1.9433,3.5091,1.9434,5.7227-0.00002,3.3854-1.3379,6.5234-4.0137,9.414-2.6758,2.8907-5.459,4.336-8.3496,4.336zm-2.7148-7.5586c-0.00001,1.3151,0.27669,2.3893,0.83008,3.2226,0.55337,0.8334,1.2858,1.25,2.1973,1.25,1.9401,0,3.8867-1.0644,5.8398-3.1933s2.9297-4.4955,2.9297-7.0996c-0.00001-1.6016-0.37436-2.9004-1.123-3.8965-0.74872-0.9961-1.7546-1.4941-3.0176-1.4942-2.0964,0.0001-3.8965,1.2859-5.4004,3.8575s-2.2559,5.0228-2.2559,7.3535z"/>
   <path id="path5403" d="m148.48,1033.5c0.1302-0.2344,0.28645-0.5599,0.46875-0.9766,0.88541-2.0312,1.6992-3.623,2.4414-4.7754,0.74217-1.1523,1.5592-2.2558,2.4512-3.3105,0.89191-1.0547,1.7057-1.8555,2.4414-2.4023,0.73567-0.5469,1.403-0.9278,2.002-1.1426,0.59894-0.2148,1.1784-0.3223,1.7383-0.3223,1.1328,0,2.0573,0.3418,2.7734,1.0254,0.71612,0.6836,1.0742,1.4811,1.0742,2.3926-0.00002,0.4036-0.12697,0.7682-0.38085,1.0937-0.25393,0.3256-0.6413,0.4883-1.1621,0.4883-0.5469,0-1.0482-0.2409-1.5039-0.7226-0.46877-0.4818-0.95705-0.7227-1.4648-0.7227-1.3542,0-3.2292,1.6406-5.625,4.9219-2.3958,3.2812-3.8542,6.8945-4.375,10.84-0.13022,1.0156-0.37762,1.6862-0.74219,2.0117-0.36459,0.3256-0.87891,0.4883-1.543,0.4883-0.63803,0-1.1003-0.4752-1.3867-1.4258-0.28646-0.9505-0.42969-2.552-0.42969-4.8047,0-0.6119,0.0326-1.9596,0.0977-4.0429,0.0781-2.4609,0.23437-4.4466,0.46875-5.9571,0.0391-0.2473,0.10416-0.8268,0.19531-1.7382,0.0911-1.0026,0.20508-1.6992,0.3418-2.0899,0.13671-0.3906,0.41666-0.7552,0.83984-1.0937,0.42317-0.3386,0.88216-0.5078,1.377-0.5078,0.48176,0,0.84309,0.153,1.084,0.4589,0.24088,0.3061,0.36132,0.6348,0.36133,0.9864-0.00001,0.5078-0.13022,1.2239-0.39063,2.1484-0.29948,1.0287-0.47526,1.7383-0.52734,2.1289-0.0391,0.4427-0.11068,0.905-0.21484,1.3867-0.13022,0.5599-0.26043,2.0313-0.39063,4.4141l-0.0195,0.7227z"/>
   <path id="path5405" d="m179.36,1034.4c-2.3958,2.0833-4.502,3.597-6.3184,4.541s-3.2064,1.416-4.1699,1.416c-1.2891,0-2.2754-0.5371-2.959-1.6113s-1.0254-2.3275-1.0254-3.7598c0-2.0052,0.4069-4.4824,1.2207-7.4316s1.4193-4.7005,1.8164-5.2539c0.39713-0.5534,1.0319-0.8301,1.9043-0.8301,0.36457,0,0.66405,0.2148,0.89843,0.6445,0.23437,0.4297,0.35156,0.918,0.35157,1.4649-0.00001,0.3255-0.14975,0.7487-0.44922,1.2695-0.70314,1.224-1.071,1.901-1.1035,2.0312-0.0326,0.1303-0.28321,0.9148-0.75195,2.3536-0.46876,1.4388-0.70313,2.7897-0.70313,4.0527,0,0.4427,0.10742,1.1328,0.32227,2.0703,0.21484,0.9375,0.6608,1.4063,1.3379,1.4063,0.71614,0,1.5983-0.2181,2.6465-0.6543s2.2298-1.1491,3.5449-2.1387,2.2005-1.7904,2.6562-2.4024c0.45571-0.6119,0.77797-1.3085,0.96679-2.0898,0.18879-0.7812,0.32225-2.4739,0.40039-5.0781,0.0781-2.6042,0.70962-3.9063,1.8945-3.9063,0.70311,0,1.1588,0.1856,1.3672,0.5567,0.20831,0.3711,0.31248,1.0775,0.3125,2.1191-0.00002,0.8594-0.0586,1.9336-0.17578,3.2227-0.14325,1.6276-0.23439,2.7864-0.27344,3.4765-0.18231,3.5808-0.6478,7.1778-1.3965,10.791-0.74872,3.6133-1.8392,6.6341-3.2715,9.0625s-3.405,3.6426-5.918,3.6426c-2.5521,0-4.821-0.6673-6.8066-2.0019-1.9857-1.3347-2.9785-2.4642-2.9785-3.3887,0-0.4297,0.10091-0.8529,0.30273-1.2695,0.20183-0.4167,0.45899-0.625,0.77149-0.625,0.15625,0,0.32552,0.1237,0.50781,0.3711,1.7057,2.6171,4.388,3.9257,8.0469,3.9257,1.888,0,3.4733-1.6569,4.7559-4.9707,1.2825-3.3138,1.9889-6.4225,2.1191-9.3261,0.026-0.5599,0.0781-1.1198,0.15625-1.6797z"/>
  </g>
 </g>
</svg>
